<?xml version="1.0" standalone="no"?>
<!DOCTYPE svg PUBLIC "-//W3C//DTD SVG 1.1//EN" "http://www.w3.org/Graphics/SVG/1.1/DTD/svg11.dtd" >
<svg xmlns="http://www.w3.org/2000/svg">
<metadata>Generated by IcoMoon</metadata>
<defs>
<font id="Kareo_v5" horiz-adv-x="1024">
<font-face units-per-em="1024" ascent="960" descent="-64" />
<missing-glyph horiz-adv-x="1024" />
<glyph unicode="&#x20;" horiz-adv-x="512" d="" />
<glyph unicode="&#x21;" glyph-name="uni21" d="M740 534c46 0 84 38 84 84 0 48-38 86-84 86-48 0-86-38-86-86 0-46 38-84 86-84zM740 676c30 0 56-26 56-58 0-30-26-56-56-56-32 0-58 26-58 56 0 32 26 58 58 58zM198 618c0-46 38-84 86-84 46 0 86 38 86 84 0 48-40 86-86 86-48 0-86-38-86-86zM340 618c0-30-24-56-56-56s-58 26-58 56c0 32 26 58 58 58s56-26 56-58zM512 562c64 0 114 50 114 114 0 62-50 114-114 114-62 0-114-52-114-114 0-64 52-114 114-114zM512 762c48 0 86-40 86-86 0-48-38-86-86-86-46 0-84 38-84 86 0 46 38 86 84 86zM384 420h28v-228h-28zM612 420h28v-228h-28zM776 108c58 0 106 46 106 106v134c0 42 0 92-34 126-22 20-54 30-94 30v-28c0 0 0 0 0 0 34 0 58-8 74-22 16-16 20-40 24-62h2v-186h-2c-2-38-32-66-70-70v0h-434l-100-2c-42 0-78 36-78 80v192h4c4 18 10 34 22 48 16 14 40 22 74 22 0 0 0 0 0 0v28c-40 2-72-10-94-30-34-34-34-88-34-128v-132c0-58 46-106 104-108h102zM682 420v-228h30v228c0 56-48 100-110 100h-182c-58 0-104-42-108-96v-232h30v156l-2 68c0 42 34 74 80 74h182c48 0 80-30 80-70z" />
<glyph unicode="&#x22;" glyph-name="uni22" d="M512-64c282 0 512 230 512 512s-230 512-512 512c-282 0-512-230-512-512s230-512 512-512zM512 886c242 0 438-196 438-438s-196-438-438-438c-242 0-438 196-438 438s196 438 438 438zM548 280v278h-72v-278c-20-12-32-32-32-56 0-38 30-68 68-68s68 30 68 68c0 24-12 44-32 56zM280 220l12 14 18-20 58 56-38 38-16-20c-36 36-58 86-66 124h44v72h-48c4 38 26 102 58 140l28-28 38 38-30 26c40 32 100 52 138 58v-50h72v50c38-6 98-26 138-58l-28-26 36-36 28 26c32-38 54-102 58-140h-48v-72h44c-8-38-30-88-66-126l-16 20-38-36 58-56 24 26 14-14c66 64 102 148 102 236 0 184-154 332-342 332s-342-148-342-332c0-90 40-180 110-242z" />
<glyph unicode="&#x23;" glyph-name="uni23" d="M0 814v-584c0-62 50-112 110-112h164l136-168c8-8 18-14 28-14 12 0 22 6 30 14l134 168h166c60 0 110 50 110 112v584c0 60-50 110-110 110h-658c-60 0-110-50-110-110zM804 814v-584c0-22-16-38-36-38h-182c-12 0-22-6-30-14l-118-146-116 146c-8 8-18 14-30 14h-182c-20 0-36 16-36 38v584c0 20 16 36 36 36h658c20 0 36-16 36-36zM402 376h74v-74h-74zM468 412l18 328h-94l18-328z" />
<glyph unicode="&#x24;" glyph-name="uni24" d="M0 118c0-20 16-36 36-36h550c20 0 36 16 36 36v732c0 20-16 36-36 36h-404v-72h366v-658h-474v548h72v-36h110v72h-74v110c0 16-8 28-22 34s-30 2-40-8l-110-110c-10-10-12-26-8-40 6-14 20-22 34-22h-36zM476 740h-184v-292h184zM146 630h110v-72h-110zM146 522h110v-74h-110zM146 412h330v-74h-330zM292 302h184v-74h-184zM146-64h622v804h-74v-730h-548zM256 246c0-30-24-54-54-54-32 0-56 24-56 54 0 32 24 56 56 56 30 0 54-24 54-56z" />
<glyph unicode="&#x25;" glyph-name="uni25" d="M74-64h72c40 0 74 32 74 74v146c0 40-34 72-74 72h-72c-42 0-74-32-74-72v-146c0-42 32-74 74-74zM74 156h72v-146h-72zM548 630h294c40 0 72 34 72 74v146c0 40-32 74-72 74h-294c-40 0-72-34-72-74v-146c0-40 32-74 72-74zM548 850h294v-146h-294zM548 302h294c40 0 72 32 72 72v110c0 40-32 74-72 74h-294c-40 0-72-34-72-74v-110c0-40 32-72 72-72zM548 484h294v-110h-294zM74 302v72h-74v-72zM220 374h72v-72h-72zM110 374h72v-72h-72zM402 850v74h-72v-74zM74 850v74h-74v-74zM110 924h72v-74h-72zM220 924h72v-74h-72zM0 484h74v-72h-74zM0 594h74v-72h-74zM0 704h74v-74h-74zM0 814h74v-74h-74zM330 484h72v-72h-72zM330 594h72v-72h-72zM330 704h72v-74h-72zM330 814h72v-74h-72zM292-28v-36h74v74h-74zM842-28v-36h72v74h-72zM914 192v36h-72v-72h72zM512 10h74v-74h-74zM622 10h72v-74h-72zM732 10h72v-74h-72zM842 118h72v-72h-72zM292 118h74v-72h-74zM402 10h74v-74h-74zM512 228h74v-72h-74zM622 228h72v-72h-72zM732 228h72v-72h-72zM402 228h74v-72h-74zM402 302v72h-72v-72zM292 192v-36h74v72h-74z" />
<glyph unicode="&#x26;" glyph-name="uni26" d="M110-64h476c20 0 36 16 36 36v658h36c20 0 36 18 36 38v182c0 20-16 36-36 36h-622c-20 0-36-16-36-36v-182c0-20 16-38 36-38h38v-658c0-20 16-36 36-36zM146 302v36h184v74h-184v72h402v-328h-402v72h292v74zM146 10v72h402v-72zM548 558h-402v72h402zM622 814v-110h-36v110zM548 814v-110h-36v110zM476 814v-110h-38v110zM74 814h328v-110h-328z" />
<glyph unicode="&#x27;" glyph-name="uni27" d="M768 266c122 0 220 98 220 218 0 50-16 94-44 132 0 0-2 2-2 2-40 52-104 86-174 86-122 0-220-98-220-220 0-120 98-218 220-218zM768 338c-66 0-122 44-140 104 58 10 108 44 140 90 18-8 38-12 56-12 28 0 54 8 78 22 8-18 12-38 12-58 0-80-66-146-146-146zM292 446c122 0 220 98 220 220 0 120-98 218-220 218-120 0-218-98-218-218 0-122 98-220 218-220zM292 812c82 0 146-66 146-146 0-82-64-146-146-146-80 0-146 64-146 146 0 80 66 146 146 146zM880 228h-224c-80 0-144-72-144-146h74c0 36 32 74 70 74h224c36 0 66-28 70-64 0-2-2-6-2-10 0-38-32-70-70-70-4 0-8-2-12-2h-682l-38 2c-38 0-70 32-70 72l-2 34v148c0 38 42 70 72 72h220c48-2 72-34 72-72h74c0 78-64 146-144 146h-224c-80 0-144-66-144-146v-148l2-36c0-80 64-146 142-146 0 0 0 0 0 0h734c4 0 8 0 12 2 70 6 126 64 132 134 2 4 2 8 2 12 0 80-64 144-144 144z" />
<glyph unicode="&#x28;" glyph-name="uni28" d="M256 684l50-44c12-12 34-12 48 0l48 44v-126h74v206c0 14-8 28-22 34s-28 4-40-6l-84-76-86 76c-12 10-26 12-40 6-12-6-22-20-22-34v-206h74zM644 558h88c56 0 110 54 110 112v108h-74v-108c0-18-22-40-36-40h-88c-12 0-22 22-22 40v108h-74v-108c0-54 36-112 96-112zM362 338h74c0 74 28 82 70 82 62 0 72-14 72-60 0-12-50-38-76-50-64-32-146-72-146-154 0-20 18-38 38-38h264v74h-210c20 20 54 36 88 52 56 28 116 56 116 114 0 92-50 136-146 136-92 0-144-46-144-156zM950 924h-876c-22 0-38-16-38-38v-420c0-362 310-492 474-512 0 0 2 0 4 0 4 0 474 54 474 512v420c0 22-16 38-38 38zM914 466c0-372-356-432-400-438-46 6-404 66-404 438v384h804z" />
<glyph unicode="&#x29;" glyph-name="uni29" d="M950 850c-242 0-418 104-420 104-10 8-26 8-36 0-2 0-178-104-420-104-22 0-38-16-38-36v-348c0-450 452-526 470-530 2 0 4 0 6 0 4 0 476 72 476 530v348c0 20-16 36-38 36zM914 466c0-368-352-446-402-456-52 10-402 88-402 456v312c200 8 350 76 402 104 52-28 202-96 402-104zM402 630c0 12-6 24-14 30-10 8-22 10-34 6l-110-38 24-68 62 20v-278h-74v-74h220v74h-74zM512 374c0-82 62-146 144-146 84 0 148 64 148 146v148c0 82-64 146-148 146-82 0-144-64-144-146zM586 522c0 50 34 72 70 72 38 0 76-24 76-72v-148c0-48-38-72-76-72-34 0-70 22-70 72z" />
<glyph unicode="&#x2a;" glyph-name="uni2A" d="M460 382c4-6 14-6 20 0l384 384c4 4 4 14 0 20-6 4-16 4-20 0l-374-374-90 88c-6 6-14 6-20 0l-72-70c-4-6-4-14 0-20l172-172c4-4 14-4 20 0l360 360v-434c0-24-20-44-44-44h-568c-24 0-44 22-44 46v566c0 24 20 44 44 44h468c8 0 16 6 16 14s-8 14-16 14h-468c-40 0-72-32-72-72v-566c0-40 32-74 72-74h568c40 0 72 32 72 72v468c0 6-4 12-10 14-4 2-10 2-14-4l-374-374-152 152 52 50z" />
<glyph unicode="&#x2b;" glyph-name="uni2B" d="M662 562c66 0 120 54 120 120 0 68-54 122-120 122-68 0-122-54-122-122 0-66 54-120 122-120zM662 776c50 0 92-42 92-94 0-50-42-92-92-92-52 0-94 42-94 92 0 52 42 94 94 94zM484 626c0 66-54 120-122 120-66 0-120-54-120-120s54-122 120-122c68 0 122 56 122 122zM270 626c0 50 42 92 92 92 52 0 94-42 94-92 0-52-42-92-94-92-50 0-92 40-92 92zM740 534h-186v-30h186c46 0 84-38 84-84v-214c0-46-38-86-84-86h-456c-46 0-84 40-84 86v156c0 48 38 86 84 86h156c48 0 86-38 86-86v-128h28v128c0 64-50 114-114 114h-156c-62 0-114-50-114-114v-156c0-62 52-114 114-114h456c62 0 114 52 114 114v214c0 62-52 114-114 114z" />
<glyph unicode="&#x2c;" glyph-name="uni2C" d="M512 818c-204 0-370-166-370-370 0-38 6-76 18-112l26 8c-10 34-16 68-16 104 0 188 154 342 342 342 108 0 208-52 272-136l-274-190c-48 20-84 36-84 72 0 0 0 0 0 0s0 0 0 0 0 0 0 0c0 16 10 32 22 46 16 16 64 24 64 24v-2c0 0 0 0 0 0s-2 0-2 0c32 0 60-14 74-36 4-6 14-8 20-4 4 4 6 8 6 12s0 6-2 8c-20 30-58 48-96 48v0 0h14v58h-28v-56c-28-2-54-14-72-32s-28-42-28-66c0 0 0 0 0 0s0 0 0 0 0 0 0 0c0-50 42-74 84-92l-276-200 16-22 292 210c8-2 18-6 26-10 0 0 2 0 4 0 32-16 54-32 54-60 0 0 0 0 0 0 0-18-6-34-20-46-16-16-38-26-62-26-30 0-58 16-74 38-4 6-12 8-20 4-4-2-6-6-6-12 0-2 2-4 2-6 18-26 48-44 80-50v-58h28v58c28 2 54 12 72 32 18 18 28 40 28 66 0 0 0 0 0 0s2 2 0 2c0 48-40 72-82 90l268 184c4 2 6 6 6 10s0 8-2 10c-70 100-182 160-304 160zM512 106c-112 0-216 56-280 148l-24-16c70-100 182-160 304-160 204 0 370 166 370 370 0 32-4 66-14 98l-26-8c8-30 12-60 12-90 0-188-154-342-342-342zM522 578c0-8-6-14-14-14s-14 6-14 14c0 8 6 14 14 14s14-6 14-14z" />
<glyph unicode="&#x2d;" glyph-name="uni2D" d="M498 818h28v-128h-28zM24 616l92-74-18-22-92 74zM1000 616l20-22-90-80-18 20zM784 768l24-14-62-114-24 14zM240 768l62-114-24-14-62 114zM164 366c84 122 210 196 346 196 138 0 266-74 348-198l28 12c-90 134-226 214-376 214-148 0-284-80-374-214zM512 106c-138 0-264 74-348 198l-28-12c90-134 228-214 376-214s284 80 374 216l-28 10c-82-124-210-198-346-198zM512 192c78 0 142 64 142 142s-64 142-142 142c-78 0-142-64-142-142s64-142 142-142zM512 448c62 0 114-52 114-114s-52-114-114-114c-62 0-114 52-114 114s52 114 114 114z" />
<glyph unicode="&#x2e;" glyph-name="uni2E" d="M688 790c-52 0-98-20-134-56l-42-38-42 38c-74 74-194 74-268 0s-74-184 0-270l44-40c2-4 6-4 10-4h142c6 0 12 2 14 6l36 64 46-80 6-12c2-4 8-8 14-6 6 0 10 4 12 8l6 20 42 136 34-118 2-8c2-6 10-10 16-10h114l-228-278-198 224-4 6-22-18 214-242c2-4 6-6 10-6 0 0 0 0 0 0 4 0 8 2 10 6l258 312c4 4 4 10 2 16-2 4-8 8-14 8h-134l-44 160c-2 6-8 10-14 10s-12-4-14-10l-54-168-48 86c-4 10-20 10-24 0l-44-78h-132l-36 36c-64 74-66 166-2 230 64 62 166 62 228 0l52-48c6-6 14-6 20 0l52 48c0 0 0 0 0 0s0 0 0 0c30 30 70 46 114 46 42 0 84-16 114-46 54-56 62-134 20-202l-10-14 12-8 12-6 10 12c50 80 40 174-24 238-36 36-84 56-134 56z" />
<glyph unicode="&#x2f;" glyph-name="uni2F" d="M330 178h110c8 0 16 6 16 14v118c0 110-82 194-188 194h-126c-8 0-14-6-14-14v-118c0-108 90-194 202-194zM156 476h112c90 0 158-70 158-166v-104h-96c-94 0-174 76-174 166zM480 452c2-2 6-4 10-4s8 2 12 4l60 66c32 30 50 72 50 114 0 44-18 86-50 116l-60 66c-6 6-16 6-22 0l-62-66c-30-30-48-72-48-116 0-42 18-84 48-114zM440 728l50 54 52-54c26-26 42-60 42-96 0-34-16-68-42-94l-52-54-52 54c-26 26-40 60-40 94 0 36 14 70 42 96zM512 266v-146c0-6 6-14 14-14h146c114 0 214 74 250 182l-26 8c-34-96-124-160-224-160h-112l350 348v-122h28v158c0 6-6 14-14 14h-156v-30h122l-350-348v110c0 100 66 190 162 224l-10 26c-108-36-180-138-180-250z" />
<glyph unicode="&#x30;" glyph-name="uni30" d="M656 732c-52 0-90-14-124-46l-18-18-18 18c-32 32-70 46-124 46-102 0-184-82-184-184 0-54 14-92 46-124l270-270c4-4 6-4 10-4s8 0 10 4l270 270c34 32 48 70 48 124 0 102-84 184-186 184zM774 444l-260-260-260 260c-26 26-38 58-38 104 0 86 70 156 156 156 46 0 76-12 104-38l28-28c6-6 14-6 20 0l28 28c28 26 58 38 104 38 86 0 158-70 158-156 0-46-12-78-40-104z" />
<glyph unicode="&#x31;" glyph-name="uni31" d="M540 306c-46 0-84-38-84-86 0-46 38-84 84-84 48 0 86 38 86 84 0 48-38 86-86 86zM540 164c-30 0-56 26-56 56 0 32 26 58 56 58 32 0 58-26 58-58 0-30-26-56-58-56zM540 562c-46 0-84-38-84-86 0-18 6-34 14-48l-136-138c-14 10-32 16-50 16-46 0-84-38-84-86 0-46 38-84 84-84 48 0 86 38 86 84 0 18-6 36-16 50l138 136c14-8 30-14 48-14 48 0 86 38 86 84 0 48-38 86-86 86zM284 164c-30 0-56 26-56 56 0 32 26 58 56 58 32 0 58-26 58-58 0-30-26-56-58-56zM540 420c-30 0-56 26-56 56 0 32 26 58 56 58 32 0 58-26 58-58 0-30-26-56-58-56zM754 432v160c40 6 70 42 70 84 0 46-38 84-84 84-42 0-78-30-84-70h-322c-36 0-64-28-64-64v-66c-40-6-70-42-70-84 0-46 38-84 84-84 48 0 86 38 86 84 0 42-32 78-72 84v66c0 20 16 36 36 36h322c6-36 34-64 70-70v-160c-40-6-72-42-72-84 0-46 38-84 86-84 46 0 84 38 84 84 0 42-30 78-70 84zM342 476c0-30-26-56-58-56-30 0-56 26-56 56 0 32 26 58 56 58 32 0 58-26 58-58zM682 676c0 30 26 56 58 56 30 0 56-26 56-56 0-32-26-58-56-58-32 0-58 26-58 58zM740 292c-32 0-58 26-58 56 0 32 26 58 58 58 30 0 56-26 56-58 0-30-26-56-56-56z" />
<glyph unicode="&#x32;" glyph-name="uni32" d="M512 960c-282 0-512-230-512-512s230-512 512-512c282 0 512 230 512 512s-230 512-512 512zM512 10c-242 0-438 196-438 438s196 438 438 438c242 0 438-196 438-438s-196-438-438-438zM548 280v278h-72v-278c-20-12-32-32-32-56 0-38 30-68 68-68s68 30 68 68c0 24-12 44-32 56zM512 794c-188 0-342-148-342-332 0-90 40-180 110-242l12 14 18-20 58 56-38 38-16-20c-36 36-58 86-66 124h44v72h-48c4 38 26 102 58 140l28-28 38 38-30 26c40 32 100 52 138 58v-50h72v50c38-6 98-26 138-58l-28-26 36-36 28 26c32-38 54-102 58-140h-48v-72h44c-8-38-30-88-66-126l-16 20-38-36 58-56 24 26 14-14c66 64 102 148 102 236 0 184-154 332-342 332z" />
<glyph unicode="&#x33;" glyph-name="uni33" d="M862 470c-14-6-28-12-42-12-4 0-6 0-8 2 2 14 16 42 26 62 18 42 40 88 40 132 0 36-4 76-30 100-24 24-56 24-90 22-10 0-20-2-32-2-90 0-126-6-146-30-20-20-18-46-16-68 0-6 2-14 2-22 0-24-4-140-54-140s-54 116-54 140c0 8 2 16 2 22 2 22 4 48-16 68-20 24-56 30-146 30-12 0-22 2-32 2-34 2-66 2-90-22-26-24-30-64-30-100 0-44 22-90 40-132 10-20 24-48 26-62-2-2-4-2-8-2-14 0-28 6-42 12-32 12-84 32-124-20-24-30-38-70-38-112s14-82 38-112c40-52 92-32 124-20 16 6 34 12 46 12-4-10-12-22-16-32-20-36-46-80-46-128 0-36 4-76 30-102 18-18 42-20 66-20 8 0 16 0 24 0 10 0 20 0 32 0 90 0 126 8 146 32 20 20 18 46 16 68 0 6-2 14-2 22 0 104 34 104 54 104s54 0 54-104c0-8-2-16-2-22-2-22-4-48 16-68 20-24 56-32 146-32 12 0 22 0 32 0 8 0 16 0 24 0 24 0 48 2 66 20 26 26 30 66 30 102 0 48-26 92-46 128-4 10-12 22-16 32 12 0 30-6 46-12 32-12 84-32 124 20 24 30 38 70 38 112s-14 82-38 112c-40 52-92 32-124 20zM930 272c-8-8-8-10-40 2-20 8-44 16-70 16-14 0-56 0-74-30-20-34 2-70 22-110 18-30 36-64 36-92 0-40-6-48-6-48-4-2-24-2-38 0-10 0-22 0-34 0-58 0-82 4-90 6 0 4 0 10 0 14 2 8 2 18 2 28 0 146-68 178-126 178s-126-32-126-178c0-10 0-20 2-28 0-4 0-10 0-14-8-2-32-6-90-6-12 0-24 0-34 0-14-2-34-2-38 0 0 0-6 8-6 48 0 28 18 62 36 92 20 40 42 76 22 110-18 30-60 30-74 30-26 0-50-8-70-16-32-12-32-10-40-2-14 16-20 42-20 66 0 26 6 50 20 66 8 10 8 10 40-2 20-8 44-16 70-16 34 0 58 10 72 30 22 38 2 84-22 136-16 36-34 74-34 102 0 40 6 48 6 48 4 2 24 2 38 0 10 0 22 0 34 0 58 0 82-4 90-6 0-4 0-10 0-14-2-8-2-18-2-28 0-192 88-212 126-212s126 20 126 212c0 10 0 20-2 28 0 4 0 10 0 14 8 2 32 6 90 6 12 0 24 0 34 0 14 2 34 2 38 0 0 0 6-8 6-48 0-28-18-66-34-102-24-52-44-98-22-134 14-22 38-32 72-32 26 0 50 8 70 16 32 12 32 12 40 2 14-16 20-40 20-66 0-24-6-50-20-66z" />
<glyph unicode="&#x34;" glyph-name="uni34" d="M1012 556l-62 48v136c0 20-16 38-36 38h-192l-188 142c-12 10-32 10-44 0l-188-142h-192c-20 0-36-18-36-38v-136l-62-48c-2-2-4 2-6 2h-6v-586c0-20 16-36 36-36h952c20 0 36 16 36 36v586h-6c-2 0-4-4-6-2zM74 484h76l228-202-304-236zM560 302h-122v22l-20 14h188zM330 412v10l-30 26h424l-30-26v-10h-12l-24-22v22zM430 228h164l286-218h-736zM646 282l188 166h8v6l32 30h76v-438zM512 846l90-68h-180zM146 704h732v-146h-18c-8 0-16-4-24-10l-30-26h-586v-2l-32 28c-8 6-16 10-24 10h-18zM182 668h148v-74h-148zM476 668h366v-74h-366z" />
<glyph unicode="&#x35;" glyph-name="uni35" d="M164-58c10-8 24-8 36-2l202 102 204-102c4-2 10-4 16-4s14 2 18 6 18 18 18 30v276c90 74 146 186 146 310 0 222-180 402-402 402s-402-180-402-402c0-124 58-236 146-310v-276c0-12 6-24 18-30zM586 32l-168 84c-10 4-22 4-32-2l-166-82v168c54-28 116-44 182-44s128 16 184 44zM74 558c0 182 146 328 328 328s330-146 330-328c0-182-148-330-330-330s-328 148-328 330zM216 480c-2-6-6-16-8-22-12-30-24-66 2-94 6-6 18-14 38-14 18 0 36 6 54 14 6 2 16 4 22 6 4-6 8-14 10-20 12-26 30-64 68-64s56 38 68 64c4 6 6 14 10 20 6-2 16-4 22-6 18-8 36-14 54-14 20 0 32 8 40 14 26 28 12 64 0 94-2 6-4 16-6 22 4 4 14 6 20 10 26 12 64 30 64 68s-38 56-64 68c-6 2-16 6-20 10 2 6 4 16 6 22 12 30 26 66 0 92-8 8-20 16-40 16-18 0-36-8-54-14-6-2-16-6-22-8-4 6-6 14-10 20-12 28-30 66-68 66s-56-38-68-66c-2-6-6-14-10-20-6 2-16 6-22 8-18 6-36 14-54 14-20 0-32-8-38-16-26-26-14-62-2-92 2-6 6-16 8-22-6-4-14-8-20-10-28-12-66-30-66-68s38-56 66-68c6-4 14-6 20-10zM226 560c24 10 50 22 60 46s0 52-10 78c0 0 0 0 0 0s0 0 0 0c28-10 56-18 78-10 24 10 36 36 46 60 2 2 2 2 2 4 0-2 2-2 2-4 12-24 22-50 46-60 22-8 52 0 78 10 0 0 0 0 0 0s0 0 0 0c-10-26-20-54-8-78 10-24 34-36 58-46 2-2 4-2 4-2s-2-2-4-2c-24-12-48-22-58-46-12-26-2-52 8-78 0 0 0 0 0 0s0 0 0 0c-26 10-56 18-78 8-24-8-34-34-46-58 0-2-2-4-2-4s0 2-2 4c-10 24-22 48-46 58-6 4-14 6-22 6-18 0-38-8-54-14-2 0-2 0-2 0s0 0 0 0c10 26 20 52 10 78-10 24-36 34-60 46-2 0-2 2-4 2 2 0 2 0 4 2z" />
<glyph unicode="&#x36;" glyph-name="uni36" d="M988 594h-304l-138 342c-6 14-20 24-34 24s-28-10-34-24l-138-342h-304c-14 0-28-10-34-24s0-30 10-40l240-206-68-344c-4-16 4-30 16-38s30-8 42 2l270 202 270-202c8-6 14-8 22-8s14 2 20 6c12 8 20 22 16 38l-68 344 240 206c10 10 16 26 10 40s-20 24-34 24zM708 366c-10-8-16-22-12-34l54-272-216 162c-6 4-14 6-22 6s-16-2-22-6l-216-162 54 272c2 12-2 26-12 34l-180 156h230c14 0 28 8 34 22l112 280 112-280c6-14 20-22 34-22h230z" />
<glyph unicode="&#x37;" glyph-name="uni37" d="M220-64h584v74h-36c-20 0-36 24-36 54s16 54 36 54c20 0 36 18 36 38v730c0 22-16 38-36 38h-548v-38h-74v38h-110c-20 0-36-16-36-38v-914c0-20 16-36 36-36zM220 850h512v-658h-512zM220 156v-38h450c-8-16-12-34-12-54s4-38 12-54h-450v-38h-74v184zM74 850h72v-658h-72z" />
<glyph unicode="&#x38;" glyph-name="uni38" d="M530 478l-12 154h-14l-10-154c-10-6-18-18-18-30 0-20 16-36 36-36 14 0 24 8 30 20l98 8v16l-98 8c-2 6-6 10-12 14zM498 234h28v-98h-28zM498 760h28v-98h-28zM214 462h98v-28h-98zM712 230l-70 70 20 20 70-70zM312 670l70-70-20-20-72 70zM664 580l-20 20 68 68 20-20zM312 228l-20 20 70 70 20-20zM938 496l-56-56c0 2 0 6 0 8 0 204-166 370-370 370s-370-166-370-370c0-204 166-370 370-370 164 0 304 108 352 256h-30c-48-132-174-228-322-228-188 0-342 154-342 342s154 342 342 342c188 0 342-154 342-342 0-2 0-6 0-8l-56 56-20-20 80-80c2-4 6-4 10-4s6 0 10 4l80 80z" />
<glyph unicode="&#x39;" glyph-name="uni39" d="M450 64c2 0 4 0 6 0 4 0 8 2 12 8l256 440c2 4 2 10 0 14-4 4-8 8-8 8h-86c-12 0-18-6-18-14s6-16 14-16h60l-210-362 22 234c0 4-2 8-4 10-2 4-6 6-10 6h-72c-8 0-14-8-14-16 0-6 6-14 14-14h56l-28-282c0-8 4-14 10-16zM526 520c0-8 6-14 14-14 0 0 0 0 0 0 8 0 14 4 14 12l30 298c0 2-2 2-2 2 0 2 0 2 0 4 0 0 0 2 0 2-2 0-2 2-2 2 0 2-2 2-2 2 0 2-2 2-2 2s0 0 0 0-2 0-2 2c-2 0-2 0-4 0 0 0 0 0 0 0-2 0-4 0-4 0s0 2 0 0c-2 0-4 0-6 0 0 0 0 0 0 0s-2-4-2-6c-2 0-2 0-2 0v0c0-2 0-2 0-2l-256-440c-4-6-2-16 6-20 2 0 4-2 6-2 6 0 10 4 14 8l222 384z" />
<glyph unicode="&#x3a;" glyph-name="uni3A" d="M512 960c-282 0-512-230-512-512s230-512 512-512c282 0 512 230 512 512s-230 512-512 512zM512 10c-242 0-438 196-438 438s196 438 438 438c242 0 438-196 438-438s-196-438-438-438zM476 558h72v-330h-72zM476 668h72v-74h-72z" />
<glyph unicode="&#x3b;" glyph-name="uni3B" d="M1012 556l-62 48v136c0 20-16 38-36 38h-192l-188 142c-12 10-32 10-44 0l-188-142h-192c-20 0-36-18-36-38v-136l-62-48c-2-2-4 2-6 2h-6v-586c0-20 16-36 36-36h952c20 0 36 16 36 36v586h-6c-2 0-4-4-6-2zM74 484h76l228-202-304-236zM560 302h-96l-46 36h188zM336 412l-36 36h424l-66-58v22zM430 228h164l286-218h-736zM646 282l188 166h8v6l32 30h76v-438zM512 846l90-68h-180zM314 704h564v-146h-18c-8 0-16-4-24-10l-30-26h-586v-2l-32 28c-8 6-16 10-24 10h-18v146zM182 668h148v-74h-148zM476 668h366v-74h-366z" />
<glyph unicode="&#x3c;" glyph-name="uni3C" d="M476 886c-70 0-136-14-198-42l30-68c52 26 110 38 168 38 222 0 402-180 402-402 0-84-36-162-74-232v122h-72v-184c0-20 16-36 36-36h182v74h-74c48 76 74 164 74 256 0 262-212 474-474 474zM804 156v22l32-22zM674-20l-32 66c-52-24-108-36-166-36-222 0-402 180-402 402 0 82 36 162 72 230v-120h74v182c0 10-4 20-12 26-6 6-16 10-26 10h-182v-72h76c-50-78-76-166-76-256 0-262 214-476 476-476 68 0 136 14 198 44zM146 668v-22l-30 22z" />
<glyph unicode="&#x3d;" glyph-name="uni3D" d="M604 886c-236 0-422-176-422-402v-8c0-10 0-26 0-28v-32c-2 0-2 0-4 0h-10c-92 0-168-74-168-166s76-168 168-168h198v74h-198c-52 0-94 42-94 94s42 94 94 94h10c12 0 20 0 26-2 8-4 18-4 28-2 14 6 24 18 24 34 0 2 0 4 0 4v72c0 4 0 18 0 26v8c0 188 150 330 348 330 192 0 346-156 346-348 0-60-16-120-46-172-16-26-42-52-62-72v44c0 20-18 36-38 36h-36v36c0 78-68 146-146 146s-146-68-146-146v-36c-20 0-38-16-38-36v-294c0-20 18-36 38-36h328c20 0 38 16 38 36v156c18 14 84 66 124 128 38 64 58 136 58 210 0 232-188 420-420 420zM768 228v-36h-256v36zM548 338c0 34 32 74 74 74 40 0 72-40 72-74v-36h-146zM512 10v108h256v-108z" />
<glyph unicode="&#x3e;" glyph-name="uni3E" d="M256 684l50-44c12-12 34-12 48 0l48 44v-126h74v206c0 14-8 28-22 34s-28 4-40-6l-84-76-86 76c-12 10-26 12-40 6-12-6-22-20-22-34v-206h74zM644 558h88c56 0 110 54 110 112v108h-74v-108c0-18-22-40-36-40h-88c-12 0-22 22-22 40v108h-74v-108c0-54 36-112 96-112zM362 338h74c0 74 28 82 70 82 62 0 72-14 72-60 0-12-50-38-76-50-64-32-146-72-146-154 0-20 18-38 38-38h264v74h-210c20 20 54 36 88 52 56 28 116 56 116 114 0 92-50 136-146 136-92 0-144-46-144-156zM950 924h-876c-22 0-38-16-38-38v-420c0-362 310-492 474-512 0 0 2 0 4 0 4 0 474 54 474 512v420c0 22-16 38-38 38zM914 466c0-372-356-432-400-438-46 6-404 66-404 438v384h804z" />
<glyph unicode="&#x3f;" glyph-name="uni3F" d="M950 850c-242 0-418 104-420 104-10 8-26 8-36 0-2 0-178-104-420-104-22 0-38-16-38-36v-348c0-450 452-526 470-530 2 0 4 0 6 0 4 0 476 72 476 530v348c0 20-16 36-38 36zM914 466c0-368-352-446-402-456-52 10-402 88-402 456v312c200 8 350 76 402 104 52-28 202-96 402-104zM402 630c0 12-6 24-14 30-10 8-22 10-34 6l-110-38 24-68 62 20v-278h-74v-74h220v74h-74zM512 374c0-82 62-146 144-146 84 0 148 64 148 146v148c0 82-64 146-148 146-82 0-144-64-144-146zM586 522c0 50 34 72 70 72 38 0 76-24 76-72v-148c0-48-38-72-76-72-34 0-70 22-70 72z" />
<glyph unicode="&#x40;" glyph-name="uni40" d="M590 476l80-218c2-6 6-10 12-10 2 0 4 2 6 2 6 2 10 10 8 18l-76 208zM494 476l104-246c2-6 8-10 14-10 2 0 4 0 6 2 6 2 10 10 6 18l-100 236zM364 476l-100-234 26-12 106 246zM462 476l-120-264 26-12 126 276zM682 534v28h-80c14 14 24 44 24 72 0 60-42 110-100 124v60c0 8-8 14-16 14h-28c-8 0-12-6-12-14v-60c-58-14-100-64-100-124 0-28 6-58 20-72h-78v-28zM398 634c0 54 44 98 98 98 56 0 100-44 100-98 0-28-12-58-30-72h-138c-20 14-30 44-30 72zM256 192c-8 0-14-6-14-14v-86c0-6 2-10 8-12 2-2 4-2 6-2 4 0 6 2 10 4l68 56c6 6 6 14 2 20-6 6-14 8-20 2l-6-4-14-12-26 14v20c0 8-6 14-14 14zM270 122v4l2-2zM768 80c6 0 10 2 12 6 4 6 2 12 0 16-12 16-26 40-26 48 0 28-16 58-52 58-14 0-28-4-40-10-14-10-20-22-20-38 0-68 50-80 126-80zM726 150c0-12 8-28 16-42-66 4-72 24-72 52 0 6 2 10 8 14s16 6 24 6c22 0 24-26 24-30z" />
<glyph unicode="&#x41;" glyph-name="uni41" d="M842 594h-256c-22 0-38-16-38-36v-476c0-20 16-36 38-36h256c20 0 36 16 36 36v476c0 20-16 36-36 36zM800 522c-14-44-48-74-86-74-40 0-74 30-88 74zM622 118v288c26-20 58-32 92-32 32 0 64 12 90 32v-288zM438 704c0 0 0 0 0 0v110c0 20-16 36-36 36h-146c-20 0-36-16-36-36v-110c0 0 0 0 0 0-44-34-74-86-74-146v-420c0-52 42-92 92-92h182c50 0 92 40 92 92v420c0 60-30 112-74 146zM292 740v38h74v-38zM330 668c60 0 108-50 108-110h-218c0 60 48 110 110 110zM220 484h218v-182h-218zM420 118h-182c-10 0-18 10-18 20v90h218v-90c0-10-8-20-18-20z" />
<glyph unicode="&#x42;" glyph-name="uni42" d="M110 338h72v-72c0-22 18-38 38-38h146c20 0 36 16 36 38v146h220v-146c0-22 16-38 36-38h146c20 0 38 16 38 38v72h72c20 0 36 16 36 36v148c0 20-16 36-36 36h-72v72c0 22-18 38-38 38h-146c-20 0-36-16-36-38v-146h-220v146c0 22-16 38-36 38h-146c-20 0-38-16-38-38v-72h-72c-20 0-36-16-36-36v-148c0-20 16-36 36-36zM878 484v-72h-36v72zM694 594h74v-292h-74zM256 594h74v-292h-74zM146 484h36v-72h-36z" />
<glyph unicode="&#x43;" glyph-name="uni43" d="M694 522c0 20-16 36-36 36-100 0-182 82-182 182 0 0 0 0 0 0 0 20-16 38-38 38-20 0-36-18-36-38 0 0 0 0 0 0 0-48-18-94-54-128-34-36-80-54-128-54 0 0 0 0 0 0s0 0 0 0c-6 0-12-2-16-4-16-8-24-24-20-42 4-16 18-28 36-28 100 0 182-82 182-182 0 0 0 0 0 0 0-20 16-36 36-36 22 0 38 16 38 36 0 0 0 0 0 0 0 48 18 94 52 128 36 36 82 54 130 54 20 0 36 16 36 38zM352 522c18 10 34 22 48 38 16 14 28 30 38 48 12-18 24-34 40-48 14-16 30-28 48-38-18-12-34-24-48-40-16-14-28-30-40-48-20 36-50 66-86 88zM842 266c-42 0-74 32-74 72 0 0 0 0 0 0 0 20-16 36-36 36s-38-16-38-36v0c0-20-6-38-20-52s-32-20-52-20c-8 0-14-2-20-6-14-10-20-26-16-42 6-16 20-26 36-26 40 0 72-32 72-74 0-20 18-36 38-36s36 16 36 36c0 20 8 38 22 52s32 22 52 22c20 0 36 16 36 36s-16 38-36 38zM732 216c-4 4-8 8-14 12 2 2 6 4 8 6 2 4 4 6 6 8 2-2 4-4 6-8 2-2 4-4 6-6-4-4-8-8-12-12zM658 704c0-20 16-36 36-36 22 0 38 0 38 36 0 0 0 0 0 0 20 0 36 16 36 36s-16 38-36 38c0 20-16 36-38 36 0 0 0 0 0 0-20 0-36-16-36-36-20 0-36-18-36-38 0-8 4-18 10-24 6-8 16-12 26-12z" />
<glyph unicode="&#x44;" glyph-name="uni44" d="M804 594h-146v146c0 20-16 38-36 38h-220c-20 0-36-18-36-38v-146h-146c-20 0-38-16-38-36v-220c0-20 18-36 38-36h146v-146c0-20 16-38 36-38h220c20 0 36 18 36 38v146h146c20 0 38 16 38 36v220c0 20-18 36-38 36zM768 374h-146c-20 0-36-16-36-36v-146h-148v146c0 20-16 36-36 36h-146v148h146c20 0 36 16 36 36v146h148v-146c0-20 16-36 36-36h146z" />
<glyph unicode="&#x45;" glyph-name="uni45" d="M402 82v4c18-2 34-4 56-4 20 0 38 0 54 2v-2c0-20 16-36 36-36h146c22 0 38 16 38 36v90c64 38 92 86 108 130h38c20 0 36 16 36 36v146c0 20-16 38-36 38h-40c-14 30-36 60-70 92v200c0 20-16 36-36 36-80 0-152-52-176-118-28 6-58 8-90 8-222 0-388-140-388-328 0-86 54-160 92-214 4-6 8-12 12-16v-100c0-20 18-36 38-36h146c20 0 36 16 36 36zM330 118h-74v74c0 8-2 16-6 22-6 8-14 18-20 28-36 48-80 108-80 170 0 130 104 228 252 250v6h214c4 4 6 12 6 18 0 36 32 72 72 86v-174c0-12 6-22 14-28 38-34 62-66 70-96 4-14 18-26 34-26h30v-74h-30c-16 0-30-10-34-26-12-44-32-88-100-122-12-8-20-20-20-34v-74h-72v10c0 12-6 20-14 28h-230c-8-8-12-18-12-28zM362 504c12 4 26 8 40 10v8h146v-8c16-2 30-6 44-10l22 70c-44 14-90 20-138 20s-92-6-136-20z" />
<glyph unicode="&#x46;" glyph-name="uni46" d="M512 850c-182 0-330-140-330-310 0-216 294-474 306-486 6-6 16-8 24-8s18 2 24 8c12 12 306 270 306 486 0 170-148 310-330 310zM512 132c-68 64-256 258-256 408 0 130 114 238 256 238s256-108 256-238c0-150-188-344-256-408zM512 630c-50 0-92-40-92-90 0-52 42-92 92-92s92 40 92 92c0 50-42 90-92 90zM512 522c-10 0-18 8-18 18s8 18 18 18c10 0 18-8 18-18s-8-18-18-18z" />
<glyph unicode="&#x47;" glyph-name="uni47" d="M840 732h-128c-8 0-16-6-16-14s8-14 16-14h104l-230-240-116 100c-6 4-14 4-18-2l-214-206c-4-6-4-16 0-20s8-6 10-6c4 0 8 2 10 4l204 200 116-100c6-4 14-4 20 2l226 236v-82c0-8 8-14 16-14 6 0 14 6 14 14v128c0 8-8 14-14 14zM228 234h28v-56h-28zM754 234h28v-56h-28zM568 234h30v-56h-30zM398 234h28v-56h-28zM840 462c-8 0-16-6-16-14v-142c0-14-4-14-6-14h-612c-10 0-22 8-22 14v384c0 6 12 14 22 14h362c8 0 16 6 16 14s-8 14-16 14h-362c-22 0-50-18-50-42v-384c0-24 28-42 50-42h612c16 0 36 10 36 42v142c0 8-8 14-14 14z" />
<glyph unicode="&#x48;" glyph-name="uni48" d="M512 790c-188 0-342-154-342-342s154-342 342-342c188 0 342 154 342 342s-154 342-342 342zM512 136c-172 0-312 140-312 312s140 312 312 312c172 0 312-140 312-312s-140-312-312-312zM526 462v200c0 8-6 14-14 14s-14-6-14-14v-200h-200c-8 0-14-6-14-14s6-14 14-14h200v-200c0-8 6-14 14-14s14 6 14 14v200h200c8 0 14 6 14 14s-6 14-14 14z" />
<glyph unicode="&#x49;" glyph-name="uni49" d="M768 434c-44 0-82-22-106-56-18 64-78 112-150 112s-132-48-150-112c-24 34-62 56-106 56-70 0-128-58-128-128v-142c0-8 6-14 14-14s14 6 14 14v142c0 54 46 100 100 100s100-46 100-100v-142c0-8 6-14 14-14s14 6 14 14v174c0 68 58 124 128 124s128-56 128-124v-174c0-8 6-14 14-14s14 6 14 14v142c0 54 46 100 100 100s100-46 100-100v-142c0-8 6-14 14-14s14 6 14 14v142c0 70-58 128-128 128zM512 520c62 0 114 50 114 112 0 64-52 114-114 114s-114-50-114-114c0-62 52-112 114-112zM512 718c48 0 86-38 86-86 0-46-38-84-86-84s-86 38-86 84c0 48 38 86 86 86zM768 462c48 0 86 38 86 86 0 46-38 84-86 84s-86-38-86-84c0-48 38-86 86-86zM768 604c32 0 56-26 56-56 0-32-24-58-56-58s-56 26-56 58c0 30 24 56 56 56zM256 462c48 0 86 38 86 86 0 46-38 84-86 84s-86-38-86-84c0-48 38-86 86-86zM256 604c32 0 56-26 56-56 0-32-24-58-56-58s-56 26-56 58c0 30 24 56 56 56z" />
<glyph unicode="&#x4a;" glyph-name="uni4A" d="M712 746h-400v-84h-70v-80c0-136 88-230 226-244-6-62-58-118-112-118h-14c-24 0-44-18-44-42v-28h30v28c0 8 6 14 14 14h340c8 0 14-6 14-14v-28h30v28c0 24-20 42-44 42h-14c-54 0-106 56-112 118 138 14 226 108 226 244v80h-70zM342 718h340v-124c0-88-54-148-144-158l-12-2v-70c-4 0-10 0-14 0s-10 0-14 0v70l-12 2c-90 10-144 70-144 158zM270 582v50h42v-38c0-98 60-170 158-186v-42c-124 14-200 94-200 216zM588 220h-152c34 26 56 70 60 116 2 0 2 0 2 0v26h28v-26c0 0 0 0 2 0 4-46 26-90 60-116zM754 632v-50c0-122-76-202-200-216v42c98 16 158 88 158 186v38z" />
<glyph unicode="&#x4b;" glyph-name="uni4B" d="M184 504c0 8 8 16 16 16h198c8 0 14-8 14-16v-256h28v428c0 8 8 14 16 14h198c8 0 14-6 14-14v-256h-28c-24 0-42-20-42-44v-128h28v128c0 8 6 16 14 16h200c6 0 14-8 14-16v-128h28v128c0 24-20 44-42 44h-144v256c0 24-18 42-42 42h-198c-24 0-44-18-44-42v-132c-4 2-8 4-14 4h-198c-24 0-44-20-44-44v-256h28zM726 306h28v-58h-28zM668 306h28v-28h-28zM668 362h28v-28h-28zM726 362h28v-28h-28zM782 362h28v-28h-28zM782 306h28v-28h-28zM540 306h28v-58h-28zM484 306h28v-28h-28zM484 362h28v-28h-28zM540 362h28v-28h-28zM484 420h28v-28h-28zM540 420h28v-28h-28zM484 476h28v-28h-28zM540 476h28v-28h-28zM598 476h28v-28h-28zM484 534h28v-30h-28zM540 534h28v-30h-28zM598 534h28v-30h-28zM484 590h28v-28h-28zM540 590h28v-28h-28zM598 590h28v-28h-28zM484 648h28v-30h-28zM540 648h28v-30h-28zM598 648h28v-30h-28zM284 306h28v-58h-28zM228 306h28v-28h-28zM228 362h28v-28h-28zM284 362h28v-28h-28zM342 362h28v-28h-28zM228 420h28v-28h-28zM284 420h28v-28h-28zM342 420h28v-28h-28zM228 476h28v-28h-28zM284 476h28v-28h-28zM342 476h28v-28h-28zM342 306h28v-28h-28zM128 192h782v-28h-782z" />
<glyph unicode="&#x4c;" glyph-name="uni4C" d="M504 804c-192 0-348-156-348-348 0-194 156-350 348-350 194 0 350 156 350 350 0 192-156 348-350 348zM504 136c-176 0-320 142-320 320 0 176 144 320 320 320 178 0 320-144 320-320 0-178-142-320-320-320zM554 330v4c18-6 40-12 56-8 26 6 32 32 30 46l-14 46v8l16 18-28 64c14 14 20 32 20 52 0 40-32 72-72 72h-90c-54 0-102-46-102-98v-88c0-26 38-54 56-68v-2l-86-120c-6-6-4-14 2-20 6-4 16-2 20 4l94 126v28l-8 4c-24 14-50 38-50 48v88c0 36 36 70 74 70h90c24 0 44-20 44-44 0-14-6-28-18-36l-10-6 32-68-12-12v-22l14-48c0-4-2-12-8-14-12-2-40 6-58 14l-20 10v-58l100-112c2-2 6-4 10-4s8 0 10 4 6 14 2 20zM312 462h-70c-8 0-14-6-14-14s6-14 14-14h70c8 0 16 6 16 14s-8 14-16 14zM768 448c0-16-12-28-28-28s-28 12-28 28c0 16 12 28 28 28s28-12 28-28zM312 648l20-20c96 96 250 96 346 0l20 20c-106 106-280 106-386 0z" />
<glyph unicode="&#x4d;" glyph-name="uni4D" d="M110 374c0-20 16-36 36-36h292c22 0 38 16 38 36v110c0 20-16 38-38 38h-292c-20 0-36-18-36-38zM182 448h220v-36h-220zM878 522h-292c-22 0-38-18-38-38v-110c0-20 16-36 38-36h292c20 0 36 16 36 36v110c0 20-16 38-36 38zM842 412h-220v36h220zM658 266h-292c-20 0-36-18-36-38v-110c0-20 16-36 36-36h292c20 0 36 16 36 36v110c0 20-16 38-36 38zM622 156h-220v36h220zM658 594c20 0 36 16 36 36v110c0 20-16 38-36 38h-292c-20 0-36-18-36-38v-110c0-20 16-36 36-36zM402 704h220v-36h-220zM768 740v-110c0-20 16-36 36-36h110v74h-72v36h72v74h-110c-20 0-36-18-36-38zM110 668v-74h110c20 0 36 16 36 36v110c0 20-16 38-36 38h-110v-74h72v-36zM768 228v-110c0-20 16-36 36-36h110v74h-72v36h72v74h-110c-20 0-36-18-36-38zM220 266h-110v-74h72v-36h-72v-74h110c20 0 36 16 36 36v110c0 20-16 38-36 38z" />
<glyph unicode="&#x4e;" glyph-name="uni4E" d="M842 814h-660c-82 0-146-64-146-142s64-142 146-142c82 0 148 64 148 138h-74c0-38-32-64-74-64-34 0-72 28-72 72s38 64 72 64h660c34 0 72-24 72-68 0-38-32-72-72-72s-74 30-74 68h-74c0-74 66-142 148-142s146 68 146 146c0 78-64 142-146 142zM256 522h74v-440h-74zM694 522h74v-440h-74zM548 630h74v-548h-74zM402 630h74v-548h-74z" />
<glyph unicode="&#x4f;" glyph-name="uni4F" d="M510 902c-210 0-356-134-356-324 0-154 86-210 150-250 26-18 52-34 62-52v-84h256c20 0 36 16 36 36 0 8-2 14-6 20 6 4 10 10 12 18 4 20 28 36 60 58 62 42 148 100 148 250 0 190-152 328-362 328zM682 384c-38-26-78-54-90-100-2-8 0-14 0-18h-154v24l-2 8c-18 42-56 66-92 90-60 40-118 76-118 188 0 152 114 254 284 254s288-106 288-256c0-112-58-152-116-190zM622 156h-220c-20 0-36-16-36-38 0-20 16-36 36-36h220c20 0 36 16 36 36 0 22-16 38-36 38zM548 46h-72c-20 0-38-16-38-36 0-22 18-38 38-38h72c20 0 38 16 38 38 0 20-18 36-38 36z" />
<glyph unicode="&#x50;" glyph-name="uni50" d="M950 668h-108c-12 0-22-6-28-14l-156 26-82 98c-10 12-26 16-42 10l-324-134c-6 8-16 14-28 14h-108c-22 0-38-16-38-38v-402c0-20 16-36 38-36h108c22 0 38 16 38 36v22c44-64 130-158 256-158 140 0 278 90 330 128 4-16 18-28 36-28h108c22 0 38 16 38 36v402c0 22-16 38-38 38zM146 266h-36v328h36zM220 578l318 132 78-94v-2l4-2 62-72-26-26-122 90c-14 12-34 10-46-2l-268-234zM476 164c-106 0-182 100-210 148l248 216 122-92c14-10 36-10 48 4l74 72c12 12 14 34 2 48l-28 34 72-12v-280c-8 0-16-4-22-8-2-2-158-130-306-130zM914 266h-36v328h36z" />
<glyph unicode="&#x51;" glyph-name="uni51" d="M912 608l-380 236c-12 6-28 6-40 0l-380-236c-12-6-18-18-18-30 0-14 6-26 18-32l108-66v-312c-12-12-18-30-18-48 0-40 32-74 72-74s74 34 74 74c0 12-4 24-10 36-10 16-26 30-46 34v220l20 12 180-112c6-2 14-4 20-4s14 2 20 4l162 102v-146h-328v-74h366c20 0 36 16 36 36v228l144 90c12 6 18 18 18 32 0 12-6 24-18 30zM512 384l-132 82 150 98-38 62-182-116-110 68 312 192 312-192z" />
<glyph unicode="&#x52;" glyph-name="uni52" d="M834 822l-102-104c-64 70-156 114-256 114-192 0-348-156-348-348 0-190 156-346 348-346 82 0 158 28 218 76l140-140 52 52-140 140c48 60 76 136 76 218 0 64-16 124-46 176l110 110zM750 484c0-150-124-274-274-274-152 0-274 124-274 274 0 152 122 274 274 274 80 0 154-34 204-90l-222-224-84 84-52-52 110-108c6-8 16-12 26-12 8 0 18 4 26 12l238 238c18-38 28-78 28-122z" />
<glyph unicode="&#x53;" glyph-name="uni53" d="M504 804c-144 0-262-118-262-264 0-104 56-160 102-206 26-26 48-50 54-74l2-8 192-74c2 0 4 0 6 0 6 0 10 4 12 8 4 8 0 16-8 20l-178 68c-10 30-34 54-60 80-44 44-94 94-94 186 0 130 106 236 234 236 130 0 236-106 236-236 0-92-50-142-94-186-28-28-56-54-62-88-2-8 2-16 10-16 8-2 16 2 18 10 4 26 28 48 54 74 46 46 102 102 102 206 0 146-118 264-264 264zM602 134l-184 72c-8 2-16-2-18-8-4-8 0-16 8-20l184-70c2-2 4-2 6-2 6 0 10 4 12 10 4 8 0 16-8 18zM492 106l-74 28c-8 2-16 0-18-8-4-8 0-16 8-18l74-28c0-2 2-2 4-2 6 0 12 4 14 10s-2 14-8 18z" />
<glyph unicode="&#x54;" glyph-name="uni54" d="M342 520c70 0 128 56 128 128 0 70-58 128-128 128-72 0-128-58-128-128 0-72 56-128 128-128zM342 746c54 0 98-44 98-98 0-56-44-100-98-100-56 0-100 44-100 100 0 54 44 98 100 98zM718 318l-20 20 164 162 20-20zM678 398l-118-116-22 100c-16 62-56 94-114 94h-178c-54 0-94-32-104-78v-234c0-28 18-58 46-58h224v30h-224c-10 0-18 14-18 28v120l-2 92c0 42 32 72 78 72h178c44 0 72-24 86-72l28-124c2-6 6-10 10-12 6 0 10 0 14 4l136 134zM680 654c0 32-26 58-58 58-30 0-56-26-56-58s26-56 56-56c32 0 58 24 58 56zM622 626c-16 0-28 12-28 28s12 28 28 28c16 0 28-12 28-28s-12-28-28-28zM554 576c-8 0-14-6-14-14v-72c0-8 6-14 14-14h72c8 0 14 6 14 14v72c0 8-6 14-14 14zM612 504h-44v44h44zM654 542c-4-6-4-10-2-16 4-4 8-6 14-6h112c6 0 10 2 14 6 2 6 2 10-2 16l-56 84c-6 8-18 8-24 0zM752 548h-60l30 46z" />
<glyph unicode="&#x55;" glyph-name="uni55" d="M456 220h98v-28h-98zM294 412l30-88-28-8-28 88zM406 650l16-22-74-56-18 24zM618 650l76-54-18-22-74 54zM756 404l-28-88-28 8 30 88zM782 604c-46 0-86-38-86-84 0-8 2-16 4-22l-108-32c-12 26-36 46-66 52v102c40 6 72 42 72 84 0 48-38 86-86 86s-86-38-86-86c0-42 32-78 72-84v-102c-30-6-54-26-66-52l-106 36c0 6 2 12 2 18 0 46-40 84-86 84-48 0-86-38-86-84 0-48 38-86 86-86 30 0 58 16 72 42l112-38c0-2 0-2 0-4 0-18 6-36 16-50l-62-102c-12 6-24 10-38 10-48 0-86-38-86-86 0-46 38-86 86-86 46 0 84 40 84 86 0 24-8 44-24 60l62 98c14-10 30-16 48-16s36 6 48 16l70-92c-20-14-32-38-32-66 0-46 38-86 84-86 48 0 86 40 86 86 0 48-38 86-86 86-10 0-18-2-28-6l-72 98c10 14 16 32 16 50 0 0 0 2 0 4l114 34c14-24 40-38 70-38 48 0 86 38 86 86 0 46-38 84-86 84zM242 462c-32 0-58 26-58 58 0 30 26 56 58 56s56-26 56-56c0-32-24-58-56-58zM740 206c0-32-26-56-58-56-30 0-56 24-56 56s26 58 56 58c32 0 58-26 58-58zM456 704c0 32 24 56 56 56s56-24 56-56c0-32-24-56-56-56s-56 24-56 56zM342 150c-32 0-58 24-58 56s26 58 58 58c30 0 56-26 56-58s-26-56-56-56zM512 376c-32 0-56 26-56 58s24 56 56 56c32 0 56-24 56-56s-24-58-56-58zM782 462c-32 0-56 26-56 58 0 30 24 56 56 56s58-26 58-56c0-32-26-58-58-58z" />
<glyph unicode="&#x56;" glyph-name="uni56" d="M858 750l-110-110c-60 82-156 136-264 136-180 0-328-148-328-328s148-328 328-328c180 0 326 148 326 328 0 62-16 118-46 168l114 114zM782 448c0-164-134-298-298-298-166 0-300 134-300 298s134 298 300 298c100 0 190-50 244-126l-266-266-124 126-20-20 134-136c2-2 6-4 10-4s8 2 10 4l272 272c24-44 38-94 38-148z" />
<glyph unicode="&#x57;" glyph-name="uni57" d="M356 490h242c8 0 14 8 14 14v242c0 8-6 14-14 14h-242c-8 0-14-6-14-14v-242c0-6 6-14 14-14zM370 732h214v-212h-214zM354 424c-6 10-20 10-26 0l-142-268c-2-4-2-10 0-14 4-4 8-6 14-6h284c4 0 10 2 12 6s2 10 0 14zM222 164l120 222 118-222zM690 434c-82 0-150-68-150-150s68-148 150-148c82 0 150 66 150 148s-68 150-150 150zM690 164c-66 0-122 54-122 120 0 68 56 122 122 122s120-54 120-122c0-66-54-120-120-120z" />
<glyph unicode="&#x58;" glyph-name="uni58" d="M754 212l-104 104-20-20 104-104h-80v-28h114c8 0 14 6 14 14v114h-28zM356 690v28h-114c-8 0-14-6-14-14v-114h28v80l104-104 20 20-104 104zM504 562c-66 0-120-54-120-122 0-66 54-120 120-120 68 0 122 54 122 120 0 68-54 122-122 122zM504 348c-50 0-92 42-92 92 0 52 42 94 92 94 52 0 94-42 94-94 0-50-42-92-94-92zM360 316l-104-104v80h-28v-114c0-8 6-14 14-14h114v28h-80l104 104zM768 718h-114v-28h80l-104-104 20-20 104 104v-80h28v114c0 8-6 14-14 14z" />
<glyph unicode="&#x59;" glyph-name="uni59" d="M894 512c-2 4-8 8-12 8h-86c-2 0-4-2-6-2-32 148-164 258-320 258-182 0-328-148-328-328s146-328 328-328c132 0 248 78 298 194l-20 24c-44-112-152-190-278-190-166 0-300 134-300 300s134 300 300 300c150 0 276-112 296-260l-20-26h-78c-6 104-94 186-198 186-110 0-200-90-200-200s90-200 200-200c84 0 158 54 186 128h-30c-28-58-88-100-156-100-96 0-172 78-172 172s76 172 172 172c90 0 162-70 170-158h-100c-8 32-36 58-70 58-40 0-72-32-72-72s32-72 72-72v30c-24 0-44 18-44 42s20 42 44 42c18 0 34-12 40-28h-40c-8 0-14-6-14-14s6-14 14-14h276l40-52c2-4 6-6 10-6h86c4 0 10 4 12 8s2 10 0 14l-24 50 24 50c2 4 2 10 0 14zM840 442l18-36h-54l-22 28-10 14 32 42h54l-18-36c-2-4-2-8 0-12z" />
<glyph unicode="&#x5a;" glyph-name="uni5A" d="M852 572l-98 164c0 4-2 8-6 12-6 4-12 2-18-2h-216c0 0 0 2 0 2s-2 0-2 0c0 0-2 0-2 0 0 2-2 2-2 2-2 0-2 0-4 0 0 0 0 0-2 0 0 0-2 0-2-2-2 0-2 0-2 0-2 0-2 0-2 0s0-2 0-2h-216c-6 4-14 6-18 2s-6-8-6-12l-98-164c-2-4-2-12 2-16l334-408c2-4 6-6 10-6v0c6 0 10 2 12 6l294 358c6 6 4 16-2 20-6 6-14 4-20-2l-242-294 94 278c2 6-2 16-10 18s-16-2-18-10l-108-322-106 322c-2 8-10 12-18 10s-12-12-10-18l92-278-274 336 86 144 102-132c2 0 2-2 2-2h-108c-8 0-14-6-14-14s6-14 14-14h570c6 0 14 6 14 14 0 4 0 8-2 10zM634 578l102 132 80-134h-184c0 0 0 2 2 2zM622 610l-86 108h172zM302 718h170l-84-108zM398 578l106 134 108-134c0 0 0-2 2-2h-218c2 0 2 2 2 2z" />
<glyph unicode="&#x5b;" glyph-name="uni5B" d="M850 528c-4 6-14 8-20 2l-318-248-318 248c-6 6-16 4-20-2-2-2-4-6-4-8v0-400c0-14 14-28 30-28h624c16 0 30 14 30 28v400c0 2-2 6-4 8zM200 120v370l304-238c0 0 0 0 2-2 0 0 0 0 0 0 2 0 4-2 6-2s4 2 6 2c0 0 0 0 0 0 2 2 2 2 2 2l304 238v-370zM270 576v-28c0-8 6-14 14-14s14 6 14 14v142h428v-142c0-8 6-14 14-14s14 6 14 14v156c0 8-6 14-14 14h-120l-98 82c-6 4-14 4-20 0l-98-82h-120c-8 0-14-6-14-14zM512 770l64-52h-128zM650 608l-20 20-24-24c-24 26-56 42-94 42-60 0-112-42-124-98-2-10-4-20-4-28 0-72 58-128 128-128s128 56 128 128c0 8-2 18-4 28-2 12-6 24-12 34zM608 548c2-10 4-18 4-28 0-56-46-100-100-100s-100 44-100 100c0 10 2 18 4 28 14 40 52 70 96 70 30 0 56-12 74-34l-74-74-32 34-20-20 42-44c2-2 6-4 10-4 0 0 0 0 0 0 4 0 8 2 10 4l80 80c2-4 4-8 6-12z" />
<glyph unicode="&#x5c;" glyph-name="uni5c" horiz-adv-x="1060" d="M291.721 543.256h59.535v148.837l71.442 214.326h-59.535l-41.674-142.884-41.674 142.884h-59.535l71.442-220.279zM506.047 537.302c23.814 0 41.674 5.953 59.535 17.86 11.907 11.907 23.814 29.767 23.814 53.581v136.93c0 17.86-5.953 35.721-23.814 47.628-17.86 17.86-35.721 23.814-59.535 23.814s-41.674-5.953-59.535-17.86c-11.907-11.907-17.86-29.767-17.86-47.628v-136.93c0-23.814 5.953-41.674 23.814-53.581 11.907-17.86 29.767-23.814 53.581-23.814zM482.233 751.628c0 5.953 0 11.907 5.953 11.907 5.953 5.953 11.907 5.953 17.86 5.953s11.907 0 17.86-5.953c5.953-5.953 5.953-5.953 5.953-11.907v-142.884c0-5.953 0-11.907-5.953-17.86s-11.907-5.953-17.86-5.953c-5.953 0-11.907 0-17.86 5.953 0 5.953-5.953 11.907-5.953 17.86v142.884zM666.791 543.256c11.907 0 17.86 5.953 29.767 5.953 11.907 5.953 23.814 11.907 29.767 23.814v-29.767h53.581v267.907h-53.581v-202.419c0-5.953-5.953-11.907-11.907-11.907-5.953-5.953-11.907-5.953-17.86-5.953s-5.953 0-11.907 5.953c0 0-5.953 5.953-5.953 11.907v202.419h-53.581v-220.279c0-17.86 5.953-29.767 11.907-35.721 5.953-11.907 17.86-11.907 29.767-11.907zM768 275.349c-5.953 0-11.907 0-17.86-5.953s-5.953-11.907-5.953-23.814v-23.814h41.674v23.814c0 11.907 0 17.86-5.953 23.814 0 5.953-5.953 5.953-11.907 5.953zM601.302 281.302c-5.953 0-5.953 0-11.907 0s-5.953-5.953-11.907-5.953v-148.837c5.953-5.953 5.953-5.953 11.907-5.953s5.953 0 11.907 0 11.907 0 11.907 5.953c0 5.953 5.953 5.953 5.953 17.86v125.023c0 5.953 0 11.907-5.953 17.86 0-11.907-5.953-5.953-11.907-5.953zM815.628 459.907h-601.302c-95.256 0-172.651-77.395-172.651-172.651v-136.93c0-95.256 77.395-172.651 172.651-172.651h607.256c95.256 0 172.651 77.395 172.651 172.651v136.93c-5.953 95.256-83.349 172.651-178.605 172.651zM339.349 352.744h-59.535v-279.814h-53.581v279.814h-53.581v47.628h166.698v-47.628zM500.093 72.93h-53.581v23.814c-5.953-11.907-17.86-17.86-29.767-23.814-5.953 0-11.907-5.953-23.814-5.953s-17.86 5.953-23.814 11.907c-5.953 5.953-11.907 17.86-11.907 35.721v202.419h47.628v-190.512c0-5.953 0-11.907 0-11.907s5.953-5.953 11.907-5.953c5.953 0 5.953 0 11.907 5.953s11.907 5.953 17.86 11.907v184.558h47.628v-238.14zM672.744 120.558c0-17.86-5.953-29.767-11.907-41.674s-17.86-11.907-29.767-11.907c-11.907 0-17.86 0-23.814 5.953s-11.907 5.953-17.86 17.86v-17.86h-53.581v327.442h47.628v-107.163c5.953 5.953 11.907 11.907 17.86 17.86s11.907 5.953 23.814 5.953 29.767-5.953 35.721-17.86c5.953-11.907 11.907-23.814 11.907-47.628v-130.977zM839.442 186.047h-89.302v-47.628c0-11.907 0-23.814 5.953-23.814 5.953-5.953 5.953-5.953 17.86-5.953 5.953 0 11.907 0 17.86 5.953s5.953 11.907 5.953 29.767v11.907h47.628v-11.907c0-23.814-5.953-41.674-17.86-53.581s-29.767-17.86-53.581-17.86c-23.814 0-35.721 5.953-53.581 17.86-11.907 11.907-17.86 29.767-17.86 53.581v107.163c0 17.86 5.953 35.721 17.86 53.581s29.767 17.86 53.581 17.86c23.814 0 41.674-5.953 53.581-17.86s17.86-29.767 17.86-53.581v-65.488z" />
<glyph unicode="&#x5d;" glyph-name="uni5D" d="M456 192v28h-40l8 58h32v28h-266c-10 0-20 8-20 18v24h286v28h-286v380c0 10 10 20 20 20h644c10 0 20-10 20-20v-322h28v322c0 26-22 48-48 48h-644c-26 0-48-22-48-48v-432c0-26 22-46 48-46h206l-10-58h-16c-16 0-28-12-28-28zM854 92c16 0 28 14 28 28v172c0 16-12 28-28 28h-58v114c0 16-12 28-28 28h-228c-16 0-28-12-28-28v-314c0-14 12-28 28-28zM540 434h228v-114c-16 0-28-12-28-28v-172h-200zM768 120v172h86v-172zM654 182c-10 0-18-8-18-18s8-20 18-20c10 0 20 10 20 20s-10 18-20 18zM654 154c-6 0-10 4-10 10 0 4 4 10 10 10s10-6 10-10c0-6-4-10-10-10zM810 166c-10 0-16-6-16-16s6-18 16-18c10 0 18 8 18 18s-8 16-18 16zM810 138c-6 0-10 6-10 12s4 10 10 10c6 0 12-4 12-10s-6-12-12-12z" />
<glyph unicode="&#x5e;" glyph-name="uni5E" d="M948.577 705.091h-116.146v-116.146h-60.837v116.146h-121.676v60.837h121.676v121.676h60.837v-121.676h116.146zM578.019 688.5c0-55.306-33.184-105.084-77.431-138.268s-49.777-49.777-49.777-77.431c0-27.653 55.306-60.837 77.431-82.959 82.959-60.837 99.553-105.084 99.553-182.514 0-99.553-105.084-199.106-276.537-199.106-154.86 5.53-287.597 66.369-287.597 165.922s105.084 204.636 259.942 204.636c16.593 0 33.184 0 49.777 0-22.124 22.124-38.715 38.715-38.715 66.369 0 16.593 5.53 33.184 11.061 49.777-5.53 0-16.593 0-27.653 0-127.207 0-199.106 88.491-199.106 199.106 0 105.084 110.615 204.636 243.352 204.636 66.369 0 259.942 0 259.942 0l-60.837-60.837h-66.369c55.306-27.653 82.959-82.959 82.959-149.33zM329.138 859.951c-71.901 0-116.146-71.901-105.084-165.922s77.431-154.86 149.33-160.391c71.901 0 110.615 55.306 99.553 149.33-16.593 94.021-71.901 171.452-143.798 176.983zM356.791 351.127c-105.084 0-193.575-66.369-193.575-143.798s77.431-143.798 182.514-143.798c149.33 0 199.106 60.837 199.106 143.798 0 11.061 0 16.593-5.53 27.653-11.061 44.246-55.306 71.901-116.146 110.615-16.593 0-38.715 0-66.369 5.53z" />
<glyph unicode="&#x5f;" glyph-name="uni5F" d="M928 864h-128c-18 0-32-14-32-32s14-32 32-32c0 0 0 0 0 0h128c14 0 32-18 32-32l-2-688c0-14-16-32-30-32h-832c-14 0-32 18-32 32v688c0 14 18 32 32 32h112c18 0 32 14 32 32s-14 32-32 32h-112c-50 0-96-46-96-96v-688c0-50 46-96 96-96h832c50 0 94 46 94 96l2 688c0 50-46 96-96 96zM472 282c0 0 0 0 0 0 2-2 2-2 4-2 0-2 2-2 2-2s0 0 0 0c2-2 2-2 2-2 2 0 2 0 2 0s0-2 2-2c0 0 0 0 0 0s2 0 4 0c0 0 0-2 2-2s4 0 6 0c2 0 4 0 6 0 0 0 0 0 0 0s2 2 2 2c2 0 2 0 4 0 0 0 0 0 0 0s2 2 2 2c2 0 2 0 4 2 0 0 0 0 0 0s2 0 2 0c0 2 0 2 2 2 0 0 0 0 0 0 0 2 0 2 0 2l176 176c14 12 14 32 0 44-12 14-32 14-44 0l-122-120v498c0 18-14 32-32 32s-32-14-32-32v-494l-104 116c-12 12-32 14-46 2-12-12-14-32-2-46z" />
<glyph unicode="&#x60;" glyph-name="uni60" d="M304 908c54 34 118 52 196 52 102 0 186-24 252-74 68-50 102-124 102-220 0-60-14-110-44-150-18-26-50-58-98-96l-48-38c-26-20-44-44-52-72-4-18-8-44-8-82h-182c2 78 10 132 20 162 12 30 42 64 90 102l50 38c16 14 28 26 40 42 16 24 26 52 26 82 0 36-10 68-30 96s-56 42-110 42c-52 0-88-16-110-52s-4-72-4-110h-224c6 130 50 224 134 278zM416 134h202l20-198h-250z" />
<glyph unicode="&#x61;" glyph-name="uni61" d="M94 216h372l186-186v186h278c48 0 94 46 94 92v466c0 46-46 92-94 92h-836c-48 0-94-46-94-92v-466c0-46 46-92 94-92z" />
<glyph unicode="&#x62;" glyph-name="uni62" d="M512 960c-282 0-512-230-512-512s230-512 512-512c282 0 512 230 512 512s-230 512-512 512zM512 10c-242 0-438 196-438 438s196 438 438 438c242 0 438-196 438-438s-196-438-438-438zM482 568c18-8 44 6 56 32 14 28 8 56-10 66-18 8-44-6-56-34-14-26-10-56 10-64zM432 748c4 0 4-2 6-4v10c0 0-6-6-6-6zM404 742c0 0 0 0 0 0s2 0 2 0c0 0 0 0 0 0s0 2 2 2c0 0 0 0 0 0s0 0 0 0 0 0 0 0c2 0 2 2 2 2s0 0 0 0-2 2 0 2c0 0-4 2-4 2 2 0-4 4-4 4v-14c0 0 0 0 0 0s0 0 0 0c2 0 2 2 2 2zM476 520c0 0 0 0 0 2 0 0 0 0 0 0v-2c0 0 0 0 0 0s0 0 0 0zM654 346c0 0 0 2 0 2s0 0-2 2c0 0 0 2 0 2s0 0 0 0c-2 2-2 4-2 4v0c-22 38-40 78-40 110 0 58 50 114 58 126 12 12 12 26 2 36-8 8-22 6-34-2-12-12-96-102-154-106 2 0 4 2 6 2h-4c0 0-6 4-8 0 0 0 2 0 2 0s-2-2-2-2c0-2 0-4 0-6v6c0-2 0-2-2-2 0 0 0 0 0 0s0 0 0 0c-2 0-2 0-2 0s-2 0-2 0c0 0 0 0 0 0s-2 0-2 0c0 0 0 2 0 2-2 0-2 0-2 0s0 0 0 0c-2 0-2 0-2 0s0 0-2 0c0 0 0 0 0 0s0 2-2 2c0 0 0 0 0 0-58 24-30 124-24 144 4 20 26 64 2 78v-4c-26 0-34 0-36 0 0 0 0 0 0 0s0 0 0 0 0 0-2 0c0-2 0-2 0-2s0 0 0 0-2 0-2-2c0 0 0 0 0 0s0 0-2 0c0-2 0-2 0-2s0 0 0 0 0 0 0 0c-2-2-2-2-2-2s0 0 0 0c0-2 0-2-2-2 0 0 0 0 0 0s0-2 0-2c0 0 0 0 0 0-2 0-2-2-2-2s0 0 0 0 0-2-2-2c0 0 0 0 0 0s0-2 0-2c0 0 0 0 0 0s-2-2-2-2c0 0 0 0 0 0s0-2 0-2c0 0-2 0-2 0 0-2 0-2 0-2s0 0 0 0c0-2 0-2-2-2 0 0 0 0 0-2 0 0 0 0 0 0s0-2 0-2c0 0 0 0-2 0 0 0 0-2 0-2s0 0 0 0c0-2 0-2 0-2s-2 0-2 0c0-2 0-2 0-2 0-2 0-2 0-2s0 0 0 0 0-2 0-2c-2 0-2 0-2-2 0 0 0 0 0 0s0-2 0-2c0 0-8 0-8 0 0-2-6-2-6-2v0c0-2 6-2 6-2s-2 0-2-2c0 0 0 0 0 0v0c0 0 2-2 2-2 0-2 2-4 2-4s0 0 0 0c0-2 0-4-2-6 0 0 0 0 0 0 0-2-2-4-2-6v0c-74-192-28-450 30-450 38 0 36 58 52 112 8 24 16 38 26 46 2 2 4 4 6 4 0 0 0 0 0 2 2 0 4 0 6 2 0 0 0 0 0 0 2 0 4 2 6 2 0 0 0 0 2 0 0 0 2 10 4 10s2 12 2 12c2 0 2 0 2 0s0-12 0-12c0 0 2-4 2-4s2-4 4-4c0 0 0 0 2 0 0 0 0 0 0 0s0-2 2-2c0 0 0-2 0-2s2 0 2 0c0 0 2-2 4-2 0 0 0 0 0 0s2 0 2-2c0 0 0-2 0-2 2-2 4-8 4-8s0 0 0 0c2 0 2 4 2 4s2 2 2 2c16-12 34-30 46-48 16-20 64-78 74-88 4-4 10-2 10-2v0c0 0 2-8 2-8s0-4 0-4c0 0-2-4-2-4 2 0 0-2 0-2v-2c0 0 10 0 14 0 18 0 34 10 34 30 0 6-2 14-4 20-4 8-26 38-48 74z" />
<glyph unicode="&#x63;" glyph-name="uni63" d="M476 740h328v-72h-328zM36-64h878c10 0 20 4 26 10 6 8 10 16 10 26v878c0 20-16 36-36 36h-476c0 0-18-2-26-10l-108-110c-8-6-12-16-12-26v0-72h-146c-14 0-26-8-32-20l-28-54h-50c-20 0-36-16-36-36v-586c0-20 16-36 36-36zM438 704c20 0 38 16 38 36v74h402v-220h-74v36h-366v-36h-14l-26 54c-6 12-32 20-32 20v36zM74 522h36c14 0 26 6 32 20l26 52h174l28-52c6-14 18-20 32-20h476v-512h-804zM182 558h148v-74h-148z" />
<glyph unicode="&#x64;" glyph-name="uni64" d="M768 960h-658c-60 0-110-50-110-110v-548c0-60 50-110 110-110h92l210-244c6-8 16-12 26-12 12 0 22 4 28 12l210 244h92c60 0 110 50 110 110v548c0 60-50 110-110 110zM804 302c0-20-16-36-36-36h-110c-10 0-20-6-28-14l-192-224-190 224c-8 8-18 14-28 14h-110c-20 0-36 16-36 36v548c0 20 16 36 36 36h658c20 0 36-16 36-36zM402 412h74v-74h-74zM410 448h58l18 330h-94z" />
<glyph unicode="&#x65;" glyph-name="uni65" d="M220 46c20 0 36 16 36 36v768c0 20-16 36-36 36h-184c-20 0-36-16-36-36v-768c0-20 16-36 36-36zM74 814h108v-696h-108zM548 46c20 0 38 16 38 36v512c0 20-18 36-38 36h-182c-20 0-36-16-36-36v-512c0-20 16-36 36-36zM402 558h110v-440h-110zM878 630h-184c-20 0-36-16-36-36v-512c0-20 16-36 36-36h184c20 0 36 16 36 36v512c0 20-16 36-36 36zM842 118h-110v440h110zM0 10h914v-74h-914z" />
<glyph unicode="&#x66;" glyph-name="uni66" d="M846 286c-20 20-52 22-72 4l-204-184v854h-102v-854l-204 184c-20 18-52 16-72-4-18-22-16-54 4-72l288-262c10-8 22-14 36-14 12 0 24 6 34 14l288 262c22 18 22 50 4 72z" />
<glyph unicode="&#x67;" glyph-name="uni67" d="M768 900l-66 60-458-504 458-506 66 60-402 446z" />
<glyph unicode="&#x68;" glyph-name="uni68" d="M244 900l66 60 458-504-458-506-66 60 404 446z" />
<glyph unicode="&#x69;" glyph-name="uni69" d="M324 468c-6 8-16 8-22 4-8-6-10-16-4-24l182-232 492 702c4 6 2 18-4 22-8 6-18 4-24-4l-466-664zM972 596c-8 0-16-8-16-16v-590c0-10-8-18-18-18h-836c-10 0-20 8-20 18v838c0 10 10 18 20 18h590c10 0 18 8 18 16 0 10-8 16-18 16h-590c-30 0-52-22-52-50v-838c0-28 22-50 52-50h836c28 0 52 22 52 50v590c0 8-8 16-18 16z" />
<glyph unicode="&#x6a;" glyph-name="uni6A" d="M370-38c-18 0-32 6-44 18l-308 316c-24 24-24 62 0 86 24 22 62 22 86-2l258-264 572 818c20 28 58 34 84 16 28-20 34-58 16-84l-616-878c-10-14-26-24-44-26-2 0-4 0-4 0z" />
<glyph unicode="&#x6b;" glyph-name="uni6B" d="M184 452c0-52-42-92-92-92s-92 40-92 92c0 50 42 90 92 90s92-40 92-90zM606 452c0-52-42-92-92-92-52 0-92 40-92 92 0 50 40 90 92 90 50 0 92-40 92-90zM1028 452c0-52-42-92-92-92-52 0-92 40-92 92 0 50 40 90 92 90 50 0 92-40 92-90z" />
<glyph unicode="&#x6c;" glyph-name="uni6C" d="M768 750c0 0-146 0-146 0-8 0-18-6-26-16-6-10-10-24-10-38 0 0 0-104 0-104s182 0 182 0c0 0 0-152 0-152s-182 0-182 0c0 0 0-452 0-452s-174 0-174 0c0 0 0 452 0 452s-156 0-156 0c0 0 0 152 0 152s156 0 156 0c0 0 0 88 0 88 0 64 20 118 60 162s90 66 150 66c0 0 146 0 146 0s0-158 0-158z" />
<glyph unicode="&#x6d;" glyph-name="uni6D" d="M260 804c0-26-10-50-30-70-20-18-44-28-76-28-30 0-56 10-74 28-20 20-28 44-28 70 0 30 8 52 28 72 18 18 44 26 76 26s56-8 74-26c18-20 28-42 30-72zM58-4c0 0 0 632 0 632s196 0 196 0c0 0 0-632 0-632s-196 0-196 0zM370 426c0 58 0 126-4 202 0 0 170 0 170 0s10-88 10-88c0 0 4 0 4 0 42 68 106 102 196 102 68 0 122-22 164-68s62-114 62-204c0 0 0-374 0-374s-196 0-196 0c0 0 0 350 0 350 0 92-34 136-100 136-48 0-82-24-100-72-4-10-6-26-6-50 0 0 0-364 0-364s-200 0-200 0c0 0 0 430 0 430z" />
<glyph unicode="&#x6e;" glyph-name="uni6E" d="M984 740c-26-36-58-70-98-100 0 0 0-24 0-24 0-88-20-174-60-256-42-82-106-152-192-208s-184-84-296-84c-110 0-208 28-298 86 10-2 26-2 48-2 90 0 170 26 240 80-42 2-80 16-112 40-34 24-56 56-68 96 6-2 18-4 34-4 18 0 36 2 52 6-46 10-82 32-112 68-28 36-42 76-42 122 0 0 0 2 0 2 24-12 54-22 86-24-58 40-86 94-86 162 0 32 8 64 26 96 106-128 238-196 400-200-4 12-6 26-6 42 0 54 18 100 56 136 38 38 84 56 138 56 56 0 102-18 140-58 40 8 82 22 122 44-14-44-42-80-84-106 38 6 76 16 112 30z" />
<glyph unicode="&#x6f;" glyph-name="uni6F" d="M0 874h1024v-170h-1024zM0 530h1024v-170h-1024zM0 186h1024v-170h-1024z" />
<glyph unicode="&#x70;" glyph-name="uni70" d="M94 216h372l186-186v186h278c48 0 94 46 94 92v466c0 46-46 92-94 92h-836c-48 0-94-46-94-92v-466c0-46 46-92 94-92z" />
<glyph unicode="&#x71;" glyph-name="uni71" d="M986 100c-54-140-182-164-226-164-12 0-204-10-480 266-224 224-250 464-252 508-4 46 8 156 154 240 18 10 54 14 62 4 4-4 126-216 130-222 4-8 4-14 4-20 0-10-6-22-18-38-14-14-28-28-44-40-14-12-30-24-42-38-14-14-20-24-20-32 2-24 18-104 152-228s198-158 204-162c6-2 12-2 16-2 8 0 18 6 30 20 14 14 56 76 70 90s26 20 34 20c8 0 14-2 20-4 8-4 208-128 212-132 10-12 2-46-6-66z" />
<glyph unicode="&#x72;" glyph-name="uni72" d="M928 864h-128c-18 0-32-14-32-32s14-32 32-32c0 0 0 0 0 0h128c14 0 32-18 32-32l-2-688c0-14-16-32-30-32h-832c-14 0-32 18-32 32v688c0 14 18 32 32 32h112c18 0 32 14 32 32s-14 32-32 32h-112c-50 0-96-46-96-96v-688c0-50 46-96 96-96h832c50 0 94 46 94 96l2 688c0 50-46 96-96 96zM472 282c0 0 0 0 0 0 2-2 2-2 4-2 0-2 2-2 2-2s0 0 0 0c2-2 2-2 2-2 2 0 2 0 2 0s0-2 2-2c0 0 0 0 0 0s2 0 4 0c0 0 0-2 2-2s4 0 6 0c2 0 4 0 6 0 0 0 0 0 0 0s2 2 2 2c2 0 2 0 4 0 0 0 0 0 0 0s2 2 2 2c2 0 2 0 4 2 0 0 0 0 0 0s2 0 2 0c0 2 0 2 2 2 0 0 0 0 0 0 0 2 0 2 0 2l176 176c14 12 14 32 0 44-12 14-32 14-44 0l-122-120v498c0 18-14 32-32 32s-32-14-32-32v-494l-104 116c-12 12-32 14-46 2-12-12-14-32-2-46z" />
<glyph unicode="&#x73;" glyph-name="uni73" d="M304 908c54 34 118 52 196 52 102 0 186-24 252-74 68-50 102-124 102-220 0-60-14-110-44-150-18-26-50-58-98-96l-48-38c-26-20-44-44-52-72-4-18-8-44-8-82h-182c2 78 10 132 20 162 12 30 42 64 90 102l50 38c16 14 28 26 40 42 16 24 26 52 26 82 0 36-10 68-30 96s-56 42-110 42c-52 0-88-16-110-52s-4-72-4-110h-224c6 130 50 224 134 278zM416 134h202l20-198h-250z" />
<glyph unicode="&#x74;" glyph-name="uni74" d="M506 756l-506-508 108-108 398 398 398-398 110 108z" />
<glyph unicode="&#x75;" glyph-name="uni75" d="M0 512h1016v-128h-1016z" />
<glyph unicode="&#x76;" glyph-name="uni76" d="M154 960l760-532-760-532z" />
<glyph unicode="&#x77;" glyph-name="uni77" d="M572 516v444h-128v-444h-444v-128h444v-444h128v444h444v128z" />
<glyph unicode="&#x78;" glyph-name="uni78" d="M980 62l-216 216c0 2-2 2-2 2 60 72 96 164 96 266 0 228-186 414-414 414s-414-186-414-414c0-228 186-414 414-414 86 0 164 26 230 70 2-4 2-6 4-8l218-218c12-12 26-18 42-18s32 6 42 18c24 24 24 62 0 86zM90 546c0 194 160 354 354 354 196 0 354-160 354-354 0-196-158-354-354-354-194 0-354 158-354 354z" />
<glyph unicode="&#x79;" glyph-name="uni79" d="M1024 454h-6l-2-6c0-2 0-4-2-4v0c0 2 0 2 0 4l-2 6h-6v-14h2l2 8c0 2 0 4 0 4v0c0 0 0-2 0-4l4-8h2l4 8c0 2 0 4 0 4v0c0 0 0-2 0-4l2-8h2zM992 452h4v-12h4v12h4v2h-12zM122 518c16-8 38 4 48 28 10 22 8 46-8 54s-38-4-48-28c-12-22-8-46 8-54zM268 332c0 0 0 0 0 0 0 2-2 2-2 2 0 2 0 2 0 2s-2 0-2 2c0 0 0 0 0 2-18 30-34 66-34 92 0 50 42 96 50 106s10 22 0 30c-6 8-18 6-28-2-10-10-78-82-126-90 0 0 0 0 0 0s-2 0-2 0c0 0 0 0 0 0-2 0-4 0-6 0 0 0 0 0 0 0s0 0-2 0c0 0 0 0 0 0s-2 0-2 0c0 0 0 0 0 0-2 0-2 0-2 0s0 0 0 0c-2 0-2 0-2 2 0 0-2 0-2 0s0 0-2 0c0 0 0 0 0 0s0 0-2 0c-48 22-24 106-22 122 4 18 20 58-8 68-2 0-4 0-6 0-16 0-30-26-38-48 0-2 0-2 0-2 0-2-2-4-2-4 0-2 0-2 0-2 0-2-2-4-2-6 0 0 0 0 0 0s0 0 0 0c-48-162-24-378 26-378 30 0 28 48 42 94 10 32 24 44 40 46 0 0 0 0 0 0s0 0 0 0c2 0 2 0 2 0s2 0 2 0c0 0 0 0 0 0 2 0 2 0 2 0s0 0 0 0c2 0 2 0 2 0s0 0 0 0 2 0 2 0c0 0 0 0 0 0s2 0 2 0c0 0 0 0 0 0s0-2 2-2c0 0 0 0 0 0s0 0 0 0c2 0 2 0 2 0s0 0 2 0c0 0 0 0 0 0s0-2 0-2c0 0 2 0 2 0s0 0 0 0c2 0 2-2 4-2 0 0 0 0 0 0s0 0 2 0c0 0 0 0 0 0 0-2 2-2 4-4 0 0 0 0 0 0s0 0 0 0 0 0 2 0c12-10 24-24 34-38 12-16 54-72 62-80 8-10 14-12 22-12 0 0 0 0 0 0s0 0 0 0c14 0 28 8 28 26 0 4-2 10-4 14-4 8-22 34-40 64zM928 456c-40 0-72-34-72-74s32-74 72-74c40 0 74 34 74 74s-34 74-74 74zM928 340c-24 0-42 18-42 42s18 44 42 44c24 0 44-20 44-44s-20-42-44-42zM776 456c-40 0-72-34-72-74s32-74 72-74c20 0 42 10 54 24 6 6 6 16 0 20-6 6-14 6-20 0-10-8-22-12-34-12-20 0-38 14-42 32h94c10 0 16 8 16 16 0 2 0 8 0 10-8 36-34 58-68 58zM738 404c8 12 22 22 38 22s28-8 34-22zM714 440c0 10-6 14-14 14-16 2-32-4-44-12 0 8-6 12-14 12s-14-6-14-14v-116c0-8 6-14 14-14s14 6 14 14v58c2 30 18 42 42 44 8 0 16 8 16 14zM410 392l42 36c6 6 8 16 2 22-4 6-14 6-20 2l-60-50v68c0 8-6 14-14 14s-16-6-16-14v-146c0-8 8-14 16-14s14 6 14 14v38l12 10 50-56c6-8 14-8 22-2 6 4 6 14 0 20zM590 454c-6 0-12-4-14-12-12 8-26 14-42 14-40 0-74-34-74-74s26-74 74-74c20 0 38 14 42 26v0-10c0-8 6-14 14-14 10 0 16 6 16 14v116c0 8-6 14-16 14zM534 340c-24 0-44 18-44 42s20 44 44 44c24 0 44-20 44-44s-20-42-44-42z" />
<glyph unicode="&#x7a;" glyph-name="uni7A" d="M842 46c20 0 36 16 36 36v440c0 20-16 36-36 36h-38v256c0 20-16 36-36 36h-586c-20 0-36-16-36-36v-732c0-20 16-36 36-36zM220 778h512v-220h-256c-20 0-38-16-38-36v-404h-218zM694 118v74h-72v-74h-110v366h292v-366zM548 448h74v-74h-74zM292 412h74v-74h-74zM292 558h74v-74h-74zM292 704h74v-74h-74zM438 704h74v-74h-74zM586 704h72v-74h-72zM292 266h74v-74h-74zM548 302h74v-74h-74zM694 448h74v-74h-74zM694 302h74v-74h-74z" />
<glyph unicode="&#x7b;" glyph-name="uni7B" d="M506 756l-506-508 108-108 398 398 398-398 110 108z" />
<glyph unicode="&#x7c;" glyph-name="uni7C" d="M672 774c-4 2-8 4-14 4h-182c-20 0-38-18-38-38s18-36 38-36h94l-376-376c-14-14-14-38 0-52 6-8 16-10 26-10 8 0 18 2 26 10l376 376v-94c0-20 16-36 36-36s36 16 36 36v182c0 6 0 10-2 14-4 10-10 16-20 20zM804 814c-20 0-36-16-36-36v-660c0-20 16-36 36-36s38 16 38 36v660c0 20-18 36-38 36zM658 448c-20 0-36-16-36-36v-294c0-20 16-36 36-36s36 16 36 36v294c0 20-16 36-36 36zM512 374c-20 0-36-16-36-36v-220c0-20 16-36 36-36s36 16 36 36v220c0 20-16 36-36 36zM366 266c-20 0-36-18-36-38v-110c0-20 16-36 36-36s36 16 36 36v110c0 20-16 38-36 38zM220 192c-20 0-38-16-38-36v-38c0-20 18-36 38-36s36 16 36 36v38c0 20-16 36-36 36z" />
<glyph unicode="&#x7d;" glyph-name="uni7D" d="M799.804 762.481c-29.728 0-63.753 4.231-93.536 4.231 4.231-55.271 0-110.461 4.231-165.736 0-110.461 0-216.698 0-327.167 0-33.958-12.825-72.317-51.048-85.038-80.724-29.728-165.736-59.399-246.432-89.211 0 174.166 0 352.66 0 526.846 0 51.048 0 97.755 0 148.778-4.231 29.728 29.728 55.271 59.399 55.271 110.461-8.505 220.942-25.485 335.589-33.958 0 21.316 0 42.437 0 59.399-148.778 25.485-297.376 55.271-441.834 80.724-21.316 4.231-46.678 8.505-67.996-4.231-33.958-12.825-55.271-46.678-51.048-80.724 0-72.317 0-144.478 0-216.698 0-203.918 0-407.841 0-616.148 0-33.958 25.485-63.753 59.399-67.996 25.485-4.231 51.048 8.505 72.317 17.068 123.203 51.048 246.432 101.903 373.911 157.182 42.437 17.068 55.271 67.996 55.271 106.251-8.505 114.717-8.505 467.438-8.505 531.102z" />
<glyph unicode="&#x7e;" glyph-name="uni7E" d="M932 396l-310 182v156c0 8-2 14-6 20l-74 116c-12 22-48 22-60 0l-74-116c-4-6-6-12-6-20v-156l-310-182c-12-6-18-18-18-32v-96c0-12 4-22 14-30 10-6 22-8 32-6l282 84v-76l-66-100c-4-6-6-14-6-22v-34c0-10 4-22 14-28 8-8 20-10 32-6l52 14 12-62c2-16 18-30 36-30h72c18 0 34 14 36 30l12 62 52-14c12-4 24-2 32 6 10 6 14 18 14 28v34c0 8-2 16-6 22l-66 100v76l282-84c10-2 22 0 32 6 10 8 14 18 14 30v96c0 14-6 26-18 32zM878 316l-282 84c-12 2-24 0-32-6-10-6-16-18-16-30v-136c0-6 2-14 6-20l48-70-24 8c-10 2-20 0-30-4-8-6-14-16-16-26l-14-70h-12l-14 70c-2 10-8 20-16 26-10 4-20 6-30 4l-24-8 48 70c4 6 6 14 6 20v136c0 12-6 24-16 30-8 6-20 8-32 6l-282-84v28l312 182c10 6 18 18 18 32v166l36 58 36-58v-166c0-14 8-26 18-32l312-182z" />
</font>
</defs>
</svg>
