<?xml version="1.0" encoding="utf-8"?>
<!-- Generator: Adobe Illustrator 18.1.1, SVG Export Plug-In . SVG Version: 6.00 Build 0)  -->
<svg version="1.1" id="Layer_1" xmlns="http://www.w3.org/2000/svg" xmlns:xlink="http://www.w3.org/1999/xlink" x="0px" y="0px"
	 width="220px" height="220px" viewBox="-289 191 220 220" enable-background="new -289 191 220 220" xml:space="preserve">
<g>
	<rect x="-273" y="318" fill="#82A53F" width="46" height="50.9"/>
	<g>
		<path fill="#94AC44" d="M-130.5,295h-13.9c-0.3,0-0.5-0.2-0.5-0.5v-21c0-0.3,0.2-0.5,0.5-0.5h13.9c0.3,0,0.5,0.2,0.5,0.5v21
			C-130,294.7-130.2,295-130.5,295z"/>
		<path fill="#94AC44" d="M-100.5,295h-14c-0.3,0-0.5-0.2-0.5-0.5v-21c0-0.3,0.2-0.5,0.5-0.5h14c0.3,0,0.5,0.2,0.5,0.5v21
			C-100,294.7-100.2,295-100.5,295z"/>
	</g>
	<path fill="#82A53F" d="M-85.2,368.8v-72.7c0-1.4-0.9-2.6-2-2.6H-160c-1.1,0-2,1.2-2,2.6v72.7"/>
	<path fill="#AABF51" d="M-81.7,295H-161c-0.3,0-0.5-0.2-0.5-0.5v-14c0-0.3,0.2-0.5,0.5-0.5h79.3c0.3,0,0.5,0.2,0.5,0.5v14
		C-81.2,294.7-81.5,295-81.7,295z"/>
	<g>
		<path fill="#AABF51" d="M-130.4,352h-14c-0.3,0-0.5-0.2-0.5-0.5v-14c0-0.3,0.2-0.5,0.5-0.5h14c0.3,0,0.5,0.2,0.5,0.5v14
			C-129.9,351.8-130.2,352-130.4,352z"/>
	</g>
	<g>
		<path fill="#AABF51" d="M-100.5,352h-14c-0.3,0-0.5-0.2-0.5-0.5v-14c0-0.3,0.2-0.5,0.5-0.5h14c0.3,0,0.5,0.2,0.5,0.5v14
			C-100,351.7-100.2,352-100.5,352z"/>
	</g>
	<g>
		<path fill="#AABF51" d="M-130,323.1c0,0.5-0.4,0.9-0.9,0.9h-13.5c-0.3,0-0.5-0.2-0.6-0.5v-14c0.1-0.3,0.3-0.5,0.6-0.5h13.5
			c0.5,0,0.9,0.4,0.9,0.9V323.1z"/>
	</g>
	<g>
		<path fill="#AABF51" d="M-100.5,324h-14c-0.3,0-0.5-0.2-0.5-0.5v-14c0-0.3,0.2-0.5,0.5-0.5h14c0.3,0,0.5,0.2,0.5,0.5v14
			C-100,323.7-100.2,324-100.5,324z"/>
	</g>
	<line fill="none" x1="-157.5" y1="275.4" x2="-139.4" y2="275.4"/>
	<g>
		<path fill="#94AC44" d="M-243.5,323.2h-14c-0.3,0-0.5-0.2-0.5-0.5v-21c0-0.3,0.2-0.5,0.5-0.5h14c0.3,0,0.5,0.2,0.5,0.5v21
			C-243,323-243.2,323.2-243.5,323.2z"/>
	</g>
	<path fill="#AABF51" d="M-225.1,323h-51.4c-0.3,0-0.5-0.2-0.5-0.5v-14c0-0.3,0.2-0.5,0.5-0.5h51.4c0.3,0,0.5,0.2,0.5,0.5v14
		C-224.6,322.8-224.9,323-225.1,323z"/>
	<g>
		<path fill="#AABF51" d="M-243.5,352h-14c-0.3,0-0.5-0.2-0.5-0.5v-14c0-0.3,0.2-0.5,0.5-0.5h14c0.3,0,0.5,0.2,0.5,0.5v14
			C-243,351.7-243.2,352-243.5,352z"/>
	</g>
	<path fill="#AABF51" d="M-158,368.9V236.2c0-1.7-1.4-3-3.1-3h-63.6c-1.7,0-3.1,1.4-3.1,3v132.7"/>
	<g>
		<g>
			<path fill="#8A9E38" d="M-200.6,307h-13.9c-0.3,0-0.5-0.2-0.5-0.5v-14c0-0.3,0.2-0.5,0.5-0.5h13.9c0.3,0,0.5,0.2,0.5,0.5v14
				C-200.1,306.8-200.3,307-200.6,307z"/>
		</g>
		<g>
			<path fill="#8A9E38" d="M-200.5,283h-14c-0.3,0-0.5-0.2-0.5-0.5v-14c0-0.3,0.2-0.5,0.5-0.5h14c0.3,0,0.5,0.2,0.5,0.5v14
				C-200,282.8-200.2,283-200.5,283z"/>
		</g>
		<g>
			<path fill="#8A9E38" d="M-171.5,307h-14c-0.3,0-0.5-0.2-0.5-0.5v-14c0-0.3,0.2-0.5,0.5-0.5h14c0.3,0,0.5,0.2,0.5,0.5v14
				C-171,306.8-171.2,307-171.5,307z"/>
		</g>
		<g>
			<path fill="#8A9E38" d="M-171.5,283h-14c-0.3,0-0.5-0.2-0.5-0.5v-14c0-0.3,0.2-0.5,0.5-0.5h14c0.3,0,0.5,0.2,0.5,0.5v14
				C-171,282.8-171.2,283-171.5,283z"/>
		</g>
	</g>
	<path fill="#8A9E38" d="M-179,368.9v-45.1c0-1.6-1.5-2.8-3.3-2.8h-21.4c-1.8,0-3.3,1.3-3.3,2.8v45.1"/>
	
		<linearGradient id="SVGID_1_" gradientUnits="userSpaceOnUse" x1="-239.9019" y1="684.035" x2="-391.1226" y2="684.035" gradientTransform="matrix(-4.489700e-11 1 1 4.489700e-11 -877.035 583.2775)">
		<stop  offset="0" style="stop-color:#0BA64B"/>
		<stop  offset="8.688059e-02" style="stop-color:#11A84F;stop-opacity:0.9235"/>
		<stop  offset="0.2062" style="stop-color:#23AD59;stop-opacity:0.8184"/>
		<stop  offset="0.3445" style="stop-color:#40B56B;stop-opacity:0.6967"/>
		<stop  offset="0.4969" style="stop-color:#68C083;stop-opacity:0.5625"/>
		<stop  offset="0.659" style="stop-color:#9CCEA2;stop-opacity:0.4198"/>
		<stop  offset="0.7257" style="stop-color:#B3D5B0;stop-opacity:0.361"/>
		<stop  offset="0.9012" style="stop-color:#E7F2E6;stop-opacity:0.13"/>
		<stop  offset="1" style="stop-color:#FFFFFF;stop-opacity:0"/>
	</linearGradient>
	<rect x="-228" y="233.1" opacity="0.2" fill="url(#SVGID_1_)" enable-background="new    " width="70" height="135.8"/>
	<path fill="#C9D86F" d="M-175.5,256h-35c-2.5,0-4.5-2-4.5-4.5l0,0c0-2.5,2-4.5,4.5-4.5h35c2.5,0,4.5,2,4.5,4.5l0,0
		C-171,254-173,256-175.5,256z"/>
	
		<linearGradient id="SVGID_2_" gradientUnits="userSpaceOnUse" x1="-698.657" y1="561.6469" x2="-779.8284" y2="561.6469" gradientTransform="matrix(-1 0 0 1 -842.9375 -237.1469)">
		<stop  offset="0" style="stop-color:#0BA64B;stop-opacity:0.8"/>
		<stop  offset="0.3223" style="stop-color:#68C083;stop-opacity:0.564"/>
		<stop  offset="0.5994" style="stop-color:#B3D5B0;stop-opacity:0.361"/>
		<stop  offset="0.8557" style="stop-color:#E7F2E6;stop-opacity:0.13"/>
		<stop  offset="1" style="stop-color:#FFFFFF;stop-opacity:0"/>
	</linearGradient>
	<rect x="-158" y="280" opacity="0.4" fill="url(#SVGID_2_)" enable-background="new    " width="72.9" height="89"/>
	
		<linearGradient id="SVGID_3_" gradientUnits="userSpaceOnUse" x1="-1819.3907" y1="508.551" x2="-1854.2085" y2="508.551" gradientTransform="matrix(1 0 0 -1 1582.9375 847.0427)">
		<stop  offset="0" style="stop-color:#0BA64B;stop-opacity:0.8"/>
		<stop  offset="0.3223" style="stop-color:#68C083;stop-opacity:0.564"/>
		<stop  offset="0.5994" style="stop-color:#B3D5B0;stop-opacity:0.361"/>
		<stop  offset="0.8557" style="stop-color:#E7F2E6;stop-opacity:0.13"/>
		<stop  offset="1" style="stop-color:#FFFFFF;stop-opacity:0"/>
	</linearGradient>
	<polygon opacity="0.4" fill="url(#SVGID_3_)" enable-background="new    " points="-273,308 -228,308 -228,369 -273,368.8 	"/>
</g>
</svg>
