<?xml version="1.0" encoding="utf-8"?>
<!-- Generator: Adobe Illustrator 19.0.0, SVG Export Plug-In . SVG Version: 6.00 Build 0)  -->
<!DOCTYPE svg PUBLIC "-//W3C//DTD SVG 1.1//EN" "http://www.w3.org/Graphics/SVG/1.1/DTD/svg11.dtd">
<svg version="1.1" id="Layer_1" xmlns="http://www.w3.org/2000/svg" xmlns:xlink="http://www.w3.org/1999/xlink" x="0px" y="0px"
	 viewBox="0 0 100 100" style="enable-background:new 0 0 100 100;" xml:space="preserve">
<style type="text/css">
	.st0{opacity:0.85;fill:url(#SVGID_1_);}
	.st1{fill:#4DA3D9;}
	.st2{opacity:0.9;}
	.st3{fill:url(#SVGID_2_);}
	.st4{fill:#FFFFFF;}
	.st5{fill:url(#SVGID_3_);}
	.st6{fill:url(#SVGID_4_);}
	.st7{fill:url(#SVGID_5_);}
	.st8{fill:#3397CA;}
	.st9{fill:url(#SVGID_6_);}
	.st10{fill:url(#SVGID_7_);}
	.st11{fill:url(#SVGID_8_);}
	.st12{fill:url(#SVGID_9_);}
	.st13{opacity:0.7;}
	.st14{fill:#A3DDED;}
</style>
<g>
	<linearGradient id="SVGID_1_" gradientUnits="userSpaceOnUse" x1="58" y1="33.4173" x2="58" y2="78.7668">
		<stop  offset="0" style="stop-color:#84D6FF"/>
		<stop  offset="1" style="stop-color:#FFFFFF;stop-opacity:0.61"/>
	</linearGradient>
	<path class="st0" d="M78,28.1V64c0,2.6-2.4,5-5,5H43c-2.6,0-5-2.4-5-5V28.1"/>
	<path class="st1" d="M38,28c0-2.6,1.4-5,4-5h32c2.6,0,4,2.4,4,5"/>
	<g class="st2">
		<linearGradient id="SVGID_2_" gradientUnits="userSpaceOnUse" x1="45" y1="34.5" x2="71" y2="34.5">
			<stop  offset="0" style="stop-color:#FFFFFF"/>
			<stop  offset="1" style="stop-color:#FFFFFF;stop-opacity:0.6"/>
		</linearGradient>
		<rect x="45" y="33" class="st3" width="26" height="3"/>
	</g>
	<g>
		<rect x="45" y="44" class="st4" width="17" height="4"/>
	</g>
	<g class="st2">
		<linearGradient id="SVGID_3_" gradientUnits="userSpaceOnUse" x1="65" y1="47.5" x2="71" y2="47.5">
			<stop  offset="0" style="stop-color:#FFFFFF"/>
			<stop  offset="1" style="stop-color:#FFFFFF;stop-opacity:0.6"/>
		</linearGradient>
		<rect x="65" y="46" class="st5" width="6" height="3"/>
	</g>
	<g class="st2">
		<linearGradient id="SVGID_4_" gradientUnits="userSpaceOnUse" x1="65" y1="57.5" x2="71" y2="57.5">
			<stop  offset="0" style="stop-color:#FFFFFF"/>
			<stop  offset="1" style="stop-color:#FFFFFF;stop-opacity:0.6"/>
		</linearGradient>
		<rect x="65" y="56" class="st6" width="6" height="3"/>
	</g>
	<linearGradient id="SVGID_5_" gradientUnits="userSpaceOnUse" x1="42" y1="48.3079" x2="42" y2="84.8755">
		<stop  offset="0" style="stop-color:#7DC6EB"/>
		<stop  offset="1" style="stop-color:#BDF0FF"/>
	</linearGradient>
	<path class="st7" d="M66,44.1v28.2c0,2.6-2.4,4.7-5,4.7H22.5c-2.6,0-4.5-2.4-4.5-5V44"/>
	<path class="st8" d="M66,44c0-2.6-1.6-5-4-5H22c-2.4,0-4,2.4-4,5H66z"/>
	<g class="st2">
		<linearGradient id="SVGID_6_" gradientUnits="userSpaceOnUse" x1="24" y1="52.5" x2="58" y2="52.5">
			<stop  offset="0" style="stop-color:#FFFFFF"/>
			<stop  offset="1" style="stop-color:#FFFFFF;stop-opacity:0.6"/>
		</linearGradient>
		<rect x="24" y="51" class="st9" width="34" height="3"/>
	</g>
	<g class="st2">
		<linearGradient id="SVGID_7_" gradientUnits="userSpaceOnUse" x1="24" y1="60.5" x2="35" y2="60.5">
			<stop  offset="0" style="stop-color:#FFFFFF"/>
			<stop  offset="1" style="stop-color:#FFFFFF;stop-opacity:0.6"/>
		</linearGradient>
		<rect x="24" y="59" class="st10" width="11" height="3"/>
	</g>
	<g class="st2">
		<linearGradient id="SVGID_8_" gradientUnits="userSpaceOnUse" x1="40" y1="60.5" x2="51" y2="60.5">
			<stop  offset="0" style="stop-color:#FFFFFF"/>
			<stop  offset="1" style="stop-color:#FFFFFF;stop-opacity:0.6"/>
		</linearGradient>
		<rect x="40" y="59" class="st11" width="11" height="3"/>
	</g>
	<g class="st2">
		<linearGradient id="SVGID_9_" gradientUnits="userSpaceOnUse" x1="24" y1="68.5" x2="45" y2="68.5">
			<stop  offset="0" style="stop-color:#FFFFFF"/>
			<stop  offset="1" style="stop-color:#FFFFFF;stop-opacity:0.6"/>
		</linearGradient>
		<rect x="24" y="67" class="st12" width="21" height="3"/>
	</g>
	<g class="st13">
		<path class="st8" d="M22,30h-2c0-7,6.4-13,14.1-13H37l-2-3h2l4,5h-6.9C27.5,19,22,24,22,30z"/>
	</g>
	<g>
		<path class="st14" d="M83.1,70H85c0,7-6.1,13-13.8,13h-3l1.9,2l-2,1l-5-5h8.2C77.7,81,83.1,76,83.1,70z"/>
	</g>
</g>
</svg>
