<?xml version="1.0" encoding="utf-8"?>
<!-- Generator: Adobe Illustrator 18.1.1, SVG Export Plug-In . SVG Version: 6.00 Build 0)  -->
<!DOCTYPE svg PUBLIC "-//W3C//DTD SVG 1.1//EN" "http://www.w3.org/Graphics/SVG/1.1/DTD/svg11.dtd">
<svg version="1.1" xmlns="http://www.w3.org/2000/svg" xmlns:xlink="http://www.w3.org/1999/xlink" x="0px" y="0px"
	 viewBox="0 0 232 194.7" enable-background="new 0 0 232 194.7" xml:space="preserve">
<g id="ILLO">
	<g>
		<g>
			<defs>
				<path id="SVGID_126_" d="M120.8,179.2c-2.9,2-6.8,2-9.7,0C43.5,133.5,24.1,109,16.8,87.8h0c-2.9-7.7-4.1-16.2-3.3-25.1
					C16,36,37.3,14.3,64,11.4c6.8-0.7,13.5-0.4,19.7,0.8c9.9,1.8,19.6,5.9,27.4,10.9c3.1,2,7,2,10,0c7.8-5.1,17.5-9.1,27.4-10.9
					c6.2-1.2,12.8-1.5,19.7-0.8c26.7,2.9,48,24.6,50.5,51.3c0.8,8.9-0.4,17.4-3.3,25.1h0C208.1,109,188.5,133.5,120.8,179.2"/>
			</defs>
			<clipPath id="SVGID_1_">
				<use xlink:href="#SVGID_126_"  overflow="visible"/>
			</clipPath>
			<path clip-path="url(#SVGID_1_)" fill="#48C0DF" d="M120.8,179.2c-2.9,2-6.8,2-9.7,0C43.5,133.5,24.1,109,16.8,87.8h0
				c-2.9-7.7-4.1-16.2-3.3-25.1C16,36,37.3,14.3,64,11.4c6.8-0.7,13.5-0.4,19.7,0.8c9.9,1.8,19.6,5.9,27.4,10.9c3.1,2,7,2,10,0
				c7.8-5.1,17.5-9.1,27.4-10.9c6.2-1.2,12.8-1.5,19.7-0.8c26.7,2.9,48,24.6,50.5,51.3c0.8,8.9-0.4,17.4-3.3,25.1h0
				C208.1,109,188.5,133.5,120.8,179.2"/>
			<g clip-path="url(#SVGID_1_)">
				<g>
					<path fill="#1DAED0" d="M153.6,114.9c-34.8,0-63.1,28.2-63.1,63.1h126.2C216.7,143.1,188.4,114.9,153.6,114.9z"/>
					<circle fill="#1DAED0" cx="153.6" cy="68.8" r="39.2"/>
				</g>
				<g>
					<path fill="#1DAED0" d="M76.2,114.9c-34.8,0-63.1,28.2-63.1,63.1h126.2C139.3,143.1,111,114.9,76.2,114.9z"/>
					<circle fill="#1DAED0" cx="76.2" cy="68.8" r="39.2"/>
				</g>
				<linearGradient id="SVGID_2_" gradientUnits="userSpaceOnUse" x1="115.7665" y1="152.1834" x2="181.367" y2="152.1834">
					<stop  offset="0" style="stop-color:#48C0DF"/>
					<stop  offset="0.289" style="stop-color:#47BCDA"/>
					<stop  offset="0.6348" style="stop-color:#45B1CB"/>
					<stop  offset="1" style="stop-color:#429FB4"/>
				</linearGradient>
				<path opacity="0.3" fill="url(#SVGID_2_)" d="M128.1,120.6c-34.8,0-63.1,28.2-63.1,63.1h126.2
					C191.2,148.9,162.9,120.6,128.1,120.6z"/>
				<linearGradient id="SVGID_3_" gradientUnits="userSpaceOnUse" x1="89.8504" y1="74.5382" x2="170.8465" y2="74.5382">
					<stop  offset="0" style="stop-color:#48C0DF"/>
					<stop  offset="0.289" style="stop-color:#47BCDA"/>
					<stop  offset="0.6348" style="stop-color:#45B1CB"/>
					<stop  offset="1" style="stop-color:#429FB4"/>
				</linearGradient>
				<circle opacity="0.3" fill="url(#SVGID_3_)" cx="128.1" cy="74.5" r="39.2"/>
				<g>
					<linearGradient id="SVGID_4_" gradientUnits="userSpaceOnUse" x1="116.0767" y1="85.4421" x2="116.2328" y2="170.306">
						<stop  offset="0" style="stop-color:#99D9EC"/>
						<stop  offset="0.293" style="stop-color:#94D6E9"/>
						<stop  offset="0.6434" style="stop-color:#85CFE2"/>
						<stop  offset="1" style="stop-color:#6FC4D7"/>
					</linearGradient>
					<path fill="url(#SVGID_4_)" d="M116.3,120.3c-34.8,0-63.1,28.2-63.1,63.1h126.2C179.3,148.6,151.1,120.3,116.3,120.3z"/>
					<linearGradient id="SVGID_5_" gradientUnits="userSpaceOnUse" x1="118.0806" y1="5.9813" x2="115.9739" y2="84.7933">
						<stop  offset="0" style="stop-color:#99D9EC"/>
						<stop  offset="0.293" style="stop-color:#94D6E9"/>
						<stop  offset="0.6434" style="stop-color:#85CFE2"/>
						<stop  offset="1" style="stop-color:#6FC4D7"/>
					</linearGradient>
					<circle fill="url(#SVGID_5_)" cx="116.3" cy="74.2" r="39.2"/>
				</g>
			</g>
		</g>
	</g>
</g>
<g id="TEXT">
	<g>
	</g>
</g>
<g id="GUIDES">
</g>
</svg>
